<svg width="370" height="220" viewBox="0 0 370 220" fill="none" xmlns="http://www.w3.org/2000/svg">
<rect width="370" height="220" fill="#8FD7AC"/>
<g clip-path="url(#clip0_655_14093)">
<path d="M194.228 33.8408C194.228 33.8408 161.672 56.3156 152.882 65.7506C152.882 65.7506 149.657 56.2266 140.469 60.588C131.281 64.9495 102.216 96.4142 91.1726 111.19C80.1294 125.965 89.0965 140.919 97.1801 144.123C97.1801 144.123 59.1473 187.203 102.127 198.33C145.108 209.456 169.447 183.243 177.133 174.965C177.133 174.965 196.127 183.91 209.026 174.965C221.924 166.019 265.037 122.85 270.337 105.36C275.638 87.8693 248.384 67.0412 237.164 67.7978C237.164 67.7978 265.258 46.5246 260.178 36.5111C255.098 26.4976 230.847 6.42601 194.228 33.8408Z" fill="#F0F0E7"/>
<path d="M250.106 52.6664C250.106 52.6664 251.696 42.2969 259.338 42.2969C266.98 42.2969 265.169 52.6664 265.169 52.6664L250.106 122.939H231.775L250.106 52.6664Z" fill="#87C4CA"/>
<g style="mix-blend-mode:multiply">
<path d="M264.86 54.58C264.86 54.58 260.531 51.7762 257.262 59.787C254.038 67.7979 243.304 122.85 243.304 122.85H232.261L250.195 52.5773C250.195 52.5773 251.873 42.8308 258.897 42.2968C267.599 41.6737 264.86 54.58 264.86 54.58Z" fill="#DCEEF0"/>
</g>
<path d="M193.3 42.2522C193.3 42.2522 186.718 44.5219 184.466 52.6218L156.328 154.226H212.206C212.206 154.226 222.896 156.406 227.136 142.031C231.377 127.656 250.106 52.6218 250.106 52.6218C250.106 52.6218 251.962 43.5873 259.338 42.2522H193.3Z" fill="#C4E2E5"/>
<path d="M177.751 96.1028L179.121 91.5188H223.912L222.94 96.1028H177.751Z" fill="#A69FFF"/>
<path d="M173.201 112.169L174.571 107.585H219.362L218.39 112.169H173.201Z" fill="#A69FFF"/>
<path d="M169.491 130.327L170.86 125.743H215.652L214.636 130.327H169.491Z" fill="#A69FFF"/>
<path d="M222.057 143.1C222.057 143.1 221.438 149.152 217.33 150.22C215.431 150.71 209.423 150.22 209.423 150.22C209.423 150.22 212.294 148.663 213.752 146.215C215.121 143.901 215.386 143.1 215.386 143.1H222.057Z" fill="#7367FF"/>
<path d="M181.638 80.0366L183.008 75.4526H227.799L226.827 80.0366H181.638Z" fill="#A69FFF"/>
<path d="M229.08 82.5733L231.509 72.8713H240.212L237.738 82.5733H229.08Z" fill="#7367FF"/>
<g style="mix-blend-mode:multiply">
<path d="M179.607 70.2456H226.209C226.209 70.2456 230.759 71.3137 230.759 77.7224C230.759 84.131 218.965 151.511 214.503 153.558C210.042 155.605 213.575 153.558 213.575 153.558H177.751L177.265 78.746L179.607 70.2456Z" fill="#DCEEF0"/>
</g>
<path d="M225.237 98.6395L227.667 88.9375H236.324L233.895 98.6395H225.237Z" fill="#7367FF"/>
<path d="M220.643 114.706L223.117 105.004H231.775L229.345 114.706H220.643Z" fill="#7367FF"/>
<path d="M216.535 132.908L218.964 123.206H227.622L225.193 132.908H216.535Z" fill="#7367FF"/>
<path d="M212.604 78.2119C212.604 78.2119 221.703 78.3899 218.964 92.1863C216.182 105.938 209.644 138.872 209.467 141.675C209.291 144.479 209.291 152.045 216.182 154.27H171.92L197.761 78.2119H212.604V78.2119Z" fill="#87C4CA"/>
<path d="M201.87 111.59L203.99 101.888H212.648L210.572 111.59H201.87Z" fill="#C4E2E5"/>
<path d="M198.645 125.921L200.721 116.219H209.423L207.303 125.921H198.645Z" fill="#C4E2E5"/>
<path d="M195.685 141.497L197.762 131.795H206.464L204.343 141.497H195.685Z" fill="#C4E2E5"/>
<path d="M171.965 109.054L172.981 104.47H200.103L199.087 109.054H171.965Z" fill="#7367FF"/>
<path d="M168.607 123.206L169.579 118.622H196.701L195.73 123.206H168.607Z" fill="#7367FF"/>
<path d="M165.339 138.961L166.311 134.377H193.433L192.461 138.961H165.339Z" fill="#7367FF"/>
<g style="mix-blend-mode:multiply">
<path d="M219.362 85.6442C219.362 85.6442 213.354 85.1992 209.07 93.7886C204.785 102.378 192.858 145.992 192.549 147.55C192.24 149.108 191.666 154.226 195.906 154.226H171.92L197.761 90.5842C197.761 90.5842 203.857 77.0994 212.648 78.212C219.362 79.0131 219.362 85.6442 219.362 85.6442Z" fill="#DCEEF0"/>
</g>
<path d="M185.172 65.6616L186.542 61.0776H231.333L230.361 65.6616H185.172Z" fill="#A69FFF"/>
<path d="M94.9273 179.994L129.78 93.7885C129.78 93.7885 135.345 78.2119 146.212 78.2119C154.516 78.2119 172.76 78.2119 212.559 78.2119C212.559 78.2119 202.267 78.2119 196.304 93.7885L161.451 179.994C161.451 179.994 159.464 186.002 156.283 188.628H85.0326C85.0326 188.628 91.5702 188.272 94.9273 179.994Z" fill="#C4E2E5"/>
<path d="M152.087 166.865L156.283 157.163H164.985L160.789 166.865H152.087Z" fill="#7367FF"/>
<path d="M156.327 188.628C156.327 188.628 146.035 188.895 150.497 174.253C155.002 159.611 156.327 154.226 156.327 154.226H79.9969C79.9969 154.226 70.4998 177.724 69.7046 179.326C68.9095 180.928 67.3193 188.628 75.5355 188.628H156.327Z" fill="#93CACF"/>
<path d="M178.9 103.491L183.096 93.7886H191.798L187.602 103.491H178.9Z" fill="#7367FF"/>
<path d="M232.614 68.1983L235.043 58.4963H243.745L241.272 68.1983H232.614Z" fill="#7367FF"/>
<path d="M132.96 101.888L135.743 95.3906H177.265L174.438 101.888H132.96Z" fill="#A69FFF"/>
<path d="M126.688 116.486L129.47 110.033H170.949L168.166 116.486H126.688Z" fill="#A69FFF"/>
<g style="mix-blend-mode:multiply">
<path d="M161.805 98.328C161.805 98.328 144.312 114.172 142.501 116.53C140.69 118.889 130.972 136.379 126.643 138.961C122.314 141.542 108.886 145.414 108.886 145.414L129.117 95.4352L161.805 91.3408V98.328V98.328Z" fill="#DCEEF0"/>
</g>
<path d="M120.371 131.796L123.154 125.298H164.676L161.849 131.796H120.371Z" fill="#A69FFF"/>
<path d="M114.231 147.105L117.058 140.607H158.536L155.709 147.105H114.231Z" fill="#A69FFF"/>
<path d="M80.0853 166.108L82.2056 161.257H136.096L134.727 166.108H80.0853Z" fill="#7367FF"/>
<path d="M172.936 118.133L177.133 108.386H185.835L181.638 118.133H172.936Z" fill="#7367FF"/>
<path d="M166.045 133.398L170.242 123.696H178.9L174.703 133.398H166.045Z" fill="#7367FF"/>
<path d="M159.199 148.707L163.395 139.005H172.053L167.857 148.707H159.199Z" fill="#7367FF"/>
<path d="M138.172 168.022L141.088 157.563H149.79L147.007 168.022H138.172Z" fill="#C4E2E5"/>
<path d="M75.2263 178.659L77.3466 173.763H132.783L131.767 178.659H75.2263Z" fill="#7367FF"/>
<path d="M185.526 101.354L182.389 98.4171L182.875 97.9276L185.57 100.464L193.256 95.1238L193.653 95.7023L185.526 101.354Z" fill="#FF8800"/>
<path d="M180.092 116.486L177 113.504L177.486 113.014L180.181 115.551L187.867 110.211L188.264 110.789L180.092 116.486Z" fill="#FF8800"/>
<path d="M145.373 164.462L142.281 161.48L142.766 160.99L145.461 163.527L153.103 158.187L153.5 158.765L145.373 164.462Z" fill="#FF8800"/>
<path d="M136.715 171.449C136.715 171.449 134.86 178.036 134.506 179.905C134.153 181.774 134.948 183.376 136.096 184.044H145.063C145.063 184.044 143.65 183.287 144.268 179.816C144.887 176.344 145.947 171.449 145.947 171.449H136.715Z" fill="#C4E2E5"/>
<path d="M139.984 180.394L136.891 177.457L137.377 176.923L140.028 179.504L147.714 174.119L148.111 174.698L139.984 180.394Z" fill="#FF8800"/>
<path d="M201.472 139.851L198.38 136.913L198.866 136.379L201.56 138.961L209.246 133.62L209.644 134.199L201.472 139.851Z" fill="#FF8800"/>
<path d="M173.82 130.772L170.728 127.835L171.214 127.301L173.864 129.882L181.55 124.541L181.948 125.12L173.82 130.772Z" fill="#FF8800"/>
<path d="M164.913 140.398L164.379 140.864L171.344 148.974L171.879 148.509L164.913 140.398Z" fill="#FF8800"/>
<path d="M173.765 140.306L161.609 148.41L161.999 149.004L174.155 140.9L173.765 140.306Z" fill="#FF8800"/>
<path d="M206.975 103.09L206.441 103.556L212.279 110.355L212.813 109.889L206.975 103.09Z" fill="#FF8800"/>
<path d="M214.33 103.031L204.126 109.833L204.516 110.427L214.72 103.624L214.33 103.031Z" fill="#FF8800"/>
<path d="M203.49 117.428L202.956 117.894L208.794 124.692L209.329 124.226L203.49 117.428Z" fill="#FF8800"/>
<path d="M210.843 117.366L200.64 124.169L201.03 124.763L211.233 117.96L210.843 117.366Z" fill="#FF8800"/>
<g style="mix-blend-mode:multiply">
<path d="M176.338 107.585C176.338 107.585 127.571 130.861 137.996 136.691C148.421 142.477 179.386 109.054 179.386 109.054L176.338 107.585Z" fill="#DCEEF0"/>
</g>
<path d="M171.92 93.7886C171.92 93.7886 174.703 96.4143 176.382 100.909C178.06 105.404 179.43 109.009 179.43 109.009C179.43 109.009 170.021 109.187 163.704 106.739C163.704 106.739 168.563 105.315 170.993 101.399C173.378 97.4824 171.92 93.7886 171.92 93.7886Z" fill="#FFB949"/>
<path d="M112.066 105.137L125.23 101.888C125.23 101.888 124.435 105.983 126.555 109.899C128.675 113.816 131.767 112.347 133.269 111.056C134.815 109.766 140.558 97.6605 136.715 94.6342C132.828 91.6079 120.901 91.2964 120.901 91.2964" fill="#FF9D00"/>
<path d="M127.306 82.1284C127.306 82.1284 139.233 82.4399 143.12 85.4663C147.007 88.4926 141.22 100.598 139.674 101.888C138.128 103.179 135.08 104.648 132.96 100.731C130.84 96.8149 131.635 92.7205 131.635 92.7205L118.471 95.9693" fill="#FFB949"/>
<path d="M120.371 108.386C122.579 105.182 121.254 96.9039 121.784 96.0583C122.314 95.2127 131.591 86.2228 131.591 86.2228L144.401 87.825C144.401 87.825 161.672 85.5997 165.825 84.2201C169.977 82.885 170.772 77.3219 169.138 76.3428C167.459 75.3637 157.299 75.9868 152.573 75.4082C147.846 74.8296 132.342 70.2012 131.9 70.2012C131.458 70.2012 108.135 75.0077 100.007 79.9922C91.8794 84.9767 80.0411 97.2599 80.0411 97.2599C80.0411 97.2599 71.8691 106.65 70.1022 107.54C68.3353 108.431 61.356 113.237 58.9265 116.486C56.497 119.735 0 141.497 0 141.497V191.521" fill="#FFCC99"/>
<g style="mix-blend-mode:multiply">
<path d="M111.315 75.4527C111.315 75.4527 118.471 75.5417 123.772 82.1729C129.073 88.8041 128.631 89.2046 128.631 89.2046L136.406 81.9059L123.86 72.0259C123.86 72.0259 112.685 75.0077 111.315 75.4527Z" fill="#FFD48F"/>
</g>
<path d="M131.9 86.6234L131.326 85.9558C131.37 85.9113 136.626 81.4164 137.598 79.8142L138.349 80.3038C137.333 81.9504 132.121 86.4009 131.9 86.6234Z" fill="#FF9D00"/>
<path d="M118.162 50.5301L171.92 93.7885C171.92 93.7885 174.527 99.9301 170.993 103.49C167.459 107.051 163.704 106.739 163.704 106.739L108.135 64.549C108.135 64.549 104.689 59.6535 108.135 53.8679C111.58 48.0823 118.162 50.5301 118.162 50.5301Z" fill="#7367FF"/>
<path d="M0 193.835C0 193.835 0 193.835 15.9022 182.264C31.8044 170.692 65.5966 150.443 65.5966 150.443C65.5966 150.443 88.8756 139.406 99.6096 139.406C107.914 139.406 123.242 120.892 123.242 120.892C123.242 120.892 140.69 109.988 142.501 107.54C144.312 105.093 153.5 97.0374 156.327 94.5897C159.155 92.1419 158.139 85.9113 151.954 85.4662C145.77 85.0212 133.093 95.6578 133.093 95.6578C128.234 98.417 120.282 100.998 120.282 100.998" fill="#FFCC99"/>
<path d="M120.724 108.653L120.017 108.163C121.431 106.116 121.298 101.799 121.254 98.951C121.21 97.0818 121.21 96.2362 121.431 95.8357L122.182 96.3252C122.094 96.5478 122.094 97.8384 122.138 98.951C122.182 101.888 122.314 106.383 120.724 108.653Z" fill="#FF9D00"/>
<path d="M142.855 107.852L142.148 107.318C143.959 104.915 152.794 97.082 156.018 94.2782C157.255 93.2101 157.697 91.3409 157.123 89.5607C156.416 87.4245 154.516 86.1338 151.91 85.9558C151.778 85.9558 151.689 85.9558 151.557 85.9558C145.505 85.9558 133.49 95.9248 133.358 96.0139L133.313 96.0584C128.454 98.8176 120.503 101.399 120.415 101.443L120.15 100.598C120.238 100.553 128.057 98.0166 132.828 95.3018C133.667 94.5897 145.814 84.6207 151.999 85.0657C154.958 85.2883 157.211 86.8459 158.006 89.2937C158.713 91.3854 158.139 93.6551 156.637 94.9457C153.412 97.7495 144.622 105.493 142.855 107.852Z" fill="#FF9D00"/>
<path d="M111.139 66.8633C111.139 66.8633 116.395 66.8633 119.62 62.6354C122.8 58.4965 122.226 53.779 122.226 53.779L112.287 45.4121C112.287 45.4121 107.561 44.522 103.32 50.7527C99.8305 55.8262 102.039 60.4102 102.039 60.4102L111.139 66.8633Z" fill="#FFB949"/>
<path d="M111.89 112.392L111.271 111.769C111.315 111.724 115.07 108.03 118.869 101.31C122.668 94.5898 124.921 85.2438 124.965 85.1548L125.804 85.3773C125.76 85.4663 123.507 94.9458 119.62 101.799C115.777 108.564 111.934 112.347 111.89 112.392Z" fill="#FF9D00"/>
<g style="mix-blend-mode:multiply">
<path d="M112.685 116.486C111.36 118.221 105.352 130.416 108.886 130.282C112.42 130.193 117.941 123.028 118.516 118.577C119.09 114.127 116.263 111.679 112.685 116.486Z" fill="#FFD48F"/>
</g>
<g style="mix-blend-mode:multiply">
<path d="M84.9884 127.567C82.6031 125.342 73.3268 124.764 71.339 125.921C69.3512 127.078 77.9649 130.46 81.7196 130.905C85.4743 131.35 87.3737 129.837 84.9884 127.567Z" fill="#FFD48F"/>
</g>
<path d="M159.861 164.462L157.211 161.48L157.741 160.99L159.95 163.527L166.929 158.765L167.327 159.344L159.861 164.462Z" fill="#FF8800"/>
<g style="mix-blend-mode:multiply">
<path d="M112.066 154.448C112.066 154.448 96.9593 171.538 94.8832 174.431C92.8071 177.323 93.1163 185.69 98.9912 188.628H73.9453C73.9453 188.628 65.9058 188.316 69.6605 179.326L79.9528 154.226L112.066 154.448Z" fill="#DCEEF0"/>
</g>
</g>
<defs>
<clipPath id="clip0_655_14093">
<rect width="271" height="181" fill="white" transform="translate(0 20)"/>
</clipPath>
</defs>
</svg>
