<svg width="370" height="220" viewBox="0 0 370 220" fill="none" xmlns="http://www.w3.org/2000/svg">
<rect width="370" height="220" fill="#8FD7AC"/>
<g clip-path="url(#clip0_655_14097)">
<path d="M137.513 201.415L63.2737 37.2893C58.4186 26.5472 66.2751 14.3962 78.1039 14.3962H240.22C246.62 14.3962 252.402 18.1384 255.051 23.9497L329.29 188.12C334.145 198.862 326.288 211.013 314.46 211.013H152.343C145.943 210.969 140.161 207.226 137.513 201.415Z" fill="#F0F0E7"/>
<path d="M108.382 135.245L91.1686 93.4655C89.9769 90.6038 92.0955 87.478 95.1851 87.478H165.231C166.997 87.478 168.586 88.5346 169.248 90.1636L186.461 131.943C187.653 134.805 185.534 137.931 182.445 137.931H112.443C110.677 137.931 109.088 136.874 108.382 135.245Z" fill="url(#paint0_linear_655_14097)"/>
<path d="M166.291 216.824H132.261C119.726 216.824 108.338 208.943 103.969 197.233L81.2819 136.654C80.2668 133.969 80.6199 131.063 82.2971 128.685C83.9302 126.308 86.5343 124.943 89.4032 124.943H98.7162V125.824H89.4032C86.7991 125.824 84.4598 127.057 83.0033 129.17C81.5468 131.283 81.1937 133.88 82.1206 136.302L104.807 196.88C109.088 208.239 120.123 215.899 132.261 215.899H166.291V216.824Z" fill="#93CAD0"/>
<path d="M331.806 216.824H166.29V215.943H331.761C333.924 215.943 335.91 214.843 337.102 213.038C338.294 211.233 338.426 208.987 337.543 207.006L251.652 17.0377C247.194 7.22013 237.352 0.880503 226.538 0.880503H62.1262V0H226.582C237.705 0 247.9 6.55975 252.447 16.6855L338.382 206.654C339.397 208.899 339.221 211.453 337.852 213.522C336.528 215.591 334.233 216.824 331.806 216.824Z" fill="#93CAD0"/>
<path d="M281.136 183.365C281.136 183.365 290.89 180.855 295.834 190.849C299.453 198.157 293.98 216.384 293.98 216.384H259.994L281.136 183.365Z" fill="#C2E1E4"/>
<path d="M182.136 161.793C182.136 161.793 196.171 128.862 203.057 118.164C210.825 106.057 230.819 102.711 240.132 103.151C259.994 104.076 274.868 107.994 282.946 115.918C291.023 123.843 293.936 129.874 296.231 141.805C298.526 153.736 296.893 173.459 296.893 173.459C296.893 173.459 288.948 175.22 280.474 175.22C271.999 175.22 269.837 172.799 269.837 172.799L263.613 216.428H191.537L202.792 168.308C202.792 168.264 188.933 160.956 182.136 161.793Z" fill="#5041FF"/>
<path d="M203.41 168.44L202.13 168.132C202.218 167.736 211.752 129.61 214.18 119.528L215.46 119.837C213.076 129.874 203.498 168.044 203.41 168.44Z" fill="#4333E2"/>
<path d="M182.136 161.792L173.617 183.409L152.917 184.994C152.917 184.994 133.452 186.799 132.261 195.824C131.069 204.937 136.145 205.025 136.145 205.025C136.145 205.025 166.732 205.025 178.649 205.025C189.948 205.025 195.73 197.629 197.231 190.409L202.836 168.308C202.792 168.264 194.318 161.704 182.136 161.792Z" fill="#FFCC99"/>
<path d="M206.853 103.988H185.49C184.828 103.988 184.21 104.296 183.857 104.868L183.372 105.616C183.019 106.145 182.974 106.805 183.195 107.377L191.714 128.333C191.758 128.377 191.758 128.466 191.758 128.51L195.333 140.44C195.598 141.233 196.348 141.805 197.187 141.805H216.519C217.799 141.805 218.726 140.572 218.373 139.34L208.706 105.308C208.486 104.56 207.735 103.988 206.853 103.988Z" fill="#93CAD0"/>
<path d="M185.269 106.497H205.308C206.102 106.497 206.853 107.025 207.073 107.818L216.828 142.025C217.137 143.17 216.298 144.314 215.062 144.314H195.509C194.715 144.314 194.009 143.786 193.788 143.038L183.548 108.83C183.195 107.641 184.078 106.497 185.269 106.497Z" fill="#C2E1E4"/>
<path d="M221.462 216.824H161.921V215.944H221.462C224.552 215.944 227.332 214.491 229.142 212.025C230.952 209.56 231.393 206.434 230.378 203.528L200.364 116.227L201.203 115.962L231.261 203.22C232.364 206.39 231.879 209.78 229.892 212.554C227.906 215.283 224.861 216.824 221.462 216.824Z" fill="#93CAD0"/>
<g style="mix-blend-mode:multiply">
<g opacity="0.7">
<path opacity="0.7" d="M189.551 129.038C189.551 129.038 194.185 124.195 196.525 123.843C198.864 123.491 203.94 126.484 205.793 128.201C207.647 129.918 212.149 131.723 213.871 131.855C215.592 131.987 216.033 131.855 216.033 131.855L217.004 135.553C217.004 135.553 209.369 136.61 204.337 135.069C199.305 133.572 190.169 131.899 190.169 131.899L189.551 129.038Z" fill="#C4E2E5"/>
</g>
</g>
<path d="M196.392 141.717C196.392 141.717 191.625 138.415 190.125 139.032C188.624 139.648 188.492 140.66 189.595 142.069C190.698 143.478 199.085 147.264 201.159 148.233C203.233 149.201 206.72 149.686 206.72 149.686L196.392 141.717Z" fill="#FFA74F"/>
<path d="M269.837 172.799L263.393 192.302L231.834 152.591C231.834 152.591 228.083 146.692 227.244 142.025C226.45 137.358 225.611 134.937 224.64 133.44C223.669 131.899 216.828 129.39 215.46 129.566L217.048 135.553C217.048 135.553 208.574 134.321 205.793 132.252C203.013 130.182 199.526 126.704 197.628 126.616C195.73 126.528 194.759 127.673 195.289 129.038C195.289 129.038 194.494 127.937 192.685 128.641C190.875 129.346 191.537 131.283 191.537 131.283C191.537 131.283 190.787 130.226 189.109 131.063C187.432 131.899 188.094 133.44 188.094 133.44C188.094 133.44 201.821 148.849 206.323 149.686C210.825 150.522 213.871 151.006 214.886 151.711C215.901 152.415 216.916 155.145 217.048 155.233C217.181 155.321 240.353 198.509 253.109 210.308C256.728 213.654 266.482 219.113 275.486 212.994C284.446 206.918 292.877 174.119 292.877 174.119C292.877 174.119 287.05 175.308 280.562 175.132C273.5 175 269.837 172.799 269.837 172.799Z" fill="#FFCC99"/>
<path d="M263.393 192.302L270.587 200.843C270.587 200.843 271.47 197.013 269.042 190.409C266.615 183.805 266.306 183.585 266.306 183.585L263.393 192.302Z" fill="#FFA74F"/>
<path d="M220.006 137.05C219.917 137.05 219.829 137.006 219.741 136.962C219.432 136.742 217.622 136.17 216.431 135.862C216.21 135.818 216.033 135.553 216.122 135.333C216.166 135.113 216.431 134.937 216.651 135.025C217.137 135.157 219.697 135.818 220.27 136.258C220.447 136.39 220.491 136.698 220.359 136.874C220.27 137.006 220.138 137.05 220.006 137.05Z" fill="#C97C00"/>
<path d="M211.266 140.22C211.222 140.22 211.222 140.22 211.266 140.22C211.09 140.22 207.603 139.868 204.425 138.371C204.204 138.283 204.116 138.019 204.204 137.799C204.293 137.579 204.558 137.491 204.778 137.579C207.824 138.987 211.266 139.34 211.311 139.34C211.531 139.384 211.752 139.56 211.708 139.824C211.664 140.044 211.487 140.22 211.266 140.22Z" fill="#C97C00"/>
<path d="M207.735 144.623C207.691 144.623 207.691 144.623 207.647 144.623C206.235 144.358 202.968 143.038 200.762 141.453C200.585 141.321 200.497 141.057 200.673 140.836C200.806 140.66 201.071 140.616 201.291 140.748C203.322 142.201 206.499 143.478 207.868 143.742C208.088 143.786 208.265 144.006 208.221 144.27C208.133 144.491 207.956 144.623 207.735 144.623Z" fill="#C97C00"/>
<path d="M204.425 138.371C201.203 136.874 195.245 129.654 194.98 129.346L195.642 128.774C195.686 128.862 201.733 136.17 204.778 137.579L204.425 138.371Z" fill="#FFA74F"/>
<path d="M200.762 141.453C198.599 139.912 191.493 131.899 191.184 131.547L191.846 130.975C191.934 131.063 199.173 139.252 201.291 140.748L200.762 141.453Z" fill="#FFA74F"/>
<path d="M173.617 183.365L183.857 182.704C183.857 182.704 180.591 178.17 176.398 176.365L173.617 183.365Z" fill="#FFA74F"/>
<path d="M233.247 108.214C233.644 107.157 233.777 96.2831 233.777 96.2831L260.7 76.6919L260.038 110.503C260.038 110.503 254.389 113.057 244.414 112.925C234.439 112.793 233.247 108.214 233.247 108.214Z" fill="#FFCC99"/>
<path d="M225.832 63.7483C225.832 63.7483 222.08 83.9999 224.508 92.4528C226.935 100.906 233.335 102.623 236.469 102.667C245.429 102.711 250.284 97.7358 252.623 94.3458C254.963 90.9559 255.934 86.9496 257.213 85.4087C258.449 83.8678 260.7 80.9182 260.7 80.9182C260.7 80.9182 262.245 69.9119 260.7 64.1005C259.156 58.2892 257.787 52.9181 247.327 51.2012C232.629 48.7798 227.112 55.1634 225.832 63.7483Z" fill="#FFCC99"/>
<path d="M245.429 66.4781C245.429 66.4781 248.96 67.5787 253.153 67.0504L253.991 63.0881C253.991 63.0881 249.887 66.6982 245.429 66.4781Z" fill="#FFA74F"/>
<path d="M259.597 51.1132C256.64 46.5346 245.473 46.5786 241.015 47.283C235.454 48.1635 228.657 50.5849 224.861 51.6855C221.727 52.566 220.756 55.5597 221.639 57.9371C221.771 58.2893 221.948 58.6415 222.124 58.9497C222.566 60.0063 223.095 61.6352 222.61 62.8239C221.815 64.717 223.316 69.4276 224.728 70.7044C224.728 70.7044 225.567 64.2327 226.45 61.0629C226.582 60.6226 226.759 60.0943 226.979 59.61C227.288 58.9056 227.641 58.2012 227.994 57.805C227.994 57.805 229.981 59.522 235.365 60.9308C235.365 60.9308 235.674 65.0251 242.913 66.2138C250.151 67.3585 253.285 63.8805 253.285 63.8805C253.285 63.8805 252.932 70.3081 252.932 71.0566C252.932 71.805 253.727 72.2012 255.007 71.4968C256.242 70.7924 258.405 70.7924 258.582 73.566C258.758 76.3396 256.86 78.761 254.477 78.9371C254.477 78.9371 254.036 81.1824 255.801 82.239C257.522 83.2956 257.169 85.3647 257.169 85.3647C257.169 85.3647 258.096 87.6981 260.435 87.6981C260.435 87.6981 264.584 76.5157 264.496 68.6352C264.452 60.7547 262.598 55.6918 259.597 51.1132Z" fill="#172B4D"/>
<path d="M157.772 204.981H140.029L135.306 164.61H162.495L157.772 204.981Z" fill="#C2E1E4"/>
<g style="mix-blend-mode:multiply">
<g opacity="0.7">
<path opacity="0.7" d="M137.116 179.535C137.116 179.535 142.324 187.811 158.125 187.811L159.802 187.371L160.729 179.535H137.116Z" fill="#C4E2E5"/>
</g>
</g>
<path d="M133.099 186.623C133.099 186.623 133.143 184.289 137.116 182.792C141.088 181.296 146.34 180.107 147.532 181.252C148.724 182.352 148.326 183.981 147.532 184.598C146.782 185.214 136.718 189.792 135.438 189.572C134.202 189.352 132.614 188.384 133.099 186.623Z" fill="#FFCC99"/>
<path d="M133.099 187.063C133.099 187.063 133.055 187.063 133.099 187.063C132.834 187.063 132.658 186.843 132.658 186.623C132.658 186.535 132.746 183.981 136.983 182.352C137.204 182.264 137.469 182.396 137.557 182.616C137.645 182.837 137.513 183.101 137.292 183.189C133.673 184.554 133.541 186.535 133.541 186.623C133.496 186.887 133.32 187.063 133.099 187.063Z" fill="#C97C00"/>
<path d="M135.571 190.013C135.527 190.013 135.482 190.013 135.438 190.013C135.218 189.969 135.041 189.748 135.085 189.484C135.129 189.264 135.35 189.088 135.615 189.132C136.718 189.308 146.649 184.862 147.355 184.245C147.709 183.981 147.929 183.453 147.929 182.969C147.929 182.616 147.841 182.044 147.311 181.56C147.135 181.384 147.135 181.119 147.311 180.943C147.488 180.767 147.753 180.767 147.929 180.943C148.503 181.516 148.856 182.22 148.812 183.013C148.812 183.761 148.459 184.509 147.929 184.95C147.091 185.566 137.469 190.013 135.571 190.013Z" fill="#C97C00"/>
<path d="M137.292 183.189L136.983 182.352C140.558 180.987 146.384 179.491 147.885 180.899L147.267 181.56C146.384 180.723 141.706 181.516 137.292 183.189Z" fill="#FFA74F"/>
<path d="M160.597 168.616H137.204C136.145 168.616 135.306 167.78 135.306 166.723V164.566C135.306 163.509 136.145 162.673 137.204 162.673H160.597C161.656 162.673 162.495 163.509 162.495 164.566V166.723C162.495 167.78 161.656 168.616 160.597 168.616Z" fill="#C2E1E4"/>
<path d="M161.479 179.535H136.189C134.909 179.535 133.849 178.478 133.849 177.201V169.277C133.849 168 134.909 166.943 136.189 166.943H161.479C162.759 166.943 163.819 168 163.819 169.277V177.201C163.819 178.478 162.759 179.535 161.479 179.535Z" fill="#93CAD0"/>
<path d="M159.802 160.736H137.954V162.717H159.802V160.736Z" fill="#93CAD0"/>
<path d="M151.593 160.736C151.593 160.736 154.285 159.855 155.212 157.61H156.757V160.736H151.593Z" fill="#C2E1E4"/>
<path d="M134.026 191.377C134.026 191.377 138.307 185.61 142.589 184.289C146.826 182.968 146.296 186.491 145.413 187.855C144.531 189.22 137.072 197.057 137.072 197.057C137.072 197.057 134.158 198.818 132.216 197.057C132.216 197.013 131.863 193.843 134.026 191.377Z" fill="#FFCC99"/>
<path d="M137.072 197.453C136.983 197.453 136.851 197.409 136.763 197.321C136.586 197.145 136.586 196.881 136.763 196.704C139.323 194.019 144.398 188.604 145.06 187.591C145.502 186.887 145.855 185.522 145.325 184.862C144.84 184.201 143.648 184.421 142.721 184.73C142.5 184.818 142.236 184.686 142.147 184.421C142.059 184.201 142.191 183.937 142.456 183.849C144.178 183.321 145.369 183.453 146.031 184.289C146.826 185.346 146.385 187.151 145.767 188.032C144.884 189.396 137.689 196.969 137.381 197.277C137.292 197.409 137.16 197.453 137.072 197.453Z" fill="#C97C00"/>
<path d="M134.379 191.642L133.673 191.113C133.849 190.893 138.131 185.214 142.456 183.849L142.721 184.686C138.66 185.962 134.423 191.554 134.379 191.642Z" fill="#FFA74F"/>
<path d="M147.356 189.748C147.356 189.748 146.164 188.604 143.869 189.396C141.574 190.233 134.247 198.201 133.85 199.61C133.32 201.459 134.776 203.088 136.939 203.088C138.837 203.044 144.972 195.956 146.296 194.283C147.62 192.61 147.841 191.465 147.356 189.748Z" fill="#FFCC99"/>
<path d="M147.356 189.748C147.356 189.748 146.164 188.604 143.869 189.396C141.574 190.233 134.247 198.201 133.85 199.61C133.32 201.459 134.776 203.088 136.939 203.088C138.837 203.044 144.972 195.956 146.296 194.283C147.62 192.61 147.841 191.465 147.356 189.748Z" fill="#FFCC99"/>
<path d="M269.528 173.371L263.26 169.937L263.349 169.453C263.613 167.956 270.013 132.296 275.486 126.176L276.457 127.057C271.602 132.56 265.511 164.962 264.717 169.233L270.146 172.226L269.528 173.371Z" fill="#4333E2"/>
<path d="M163.554 184.157C163.554 184.157 163.068 183.453 160.288 183.409C157.507 183.321 150.489 188.78 150.842 191.377C151.195 193.975 153.27 194.107 155.168 193.182C157.066 192.258 161.215 189.132 161.215 189.132" fill="#FFCC99"/>
<path d="M153.138 194.151C152.652 194.151 152.211 194.063 151.813 193.843C151.284 193.535 150.578 192.874 150.357 191.421C150.225 190.233 151.196 188.868 152.078 187.899C154.241 185.522 158.125 182.925 160.244 182.969C163.113 183.057 164.702 183.849 164.79 183.893L164.393 184.686C164.393 184.686 162.892 183.937 160.244 183.849C158.611 183.805 154.947 186.094 152.74 188.516C151.681 189.66 151.151 190.717 151.24 191.333C151.372 192.214 151.681 192.786 152.211 193.094C152.873 193.447 153.844 193.359 154.903 192.83C156.713 191.906 160.862 188.868 160.906 188.824L161.435 189.528C161.259 189.66 157.198 192.654 155.3 193.623C154.594 193.975 153.844 194.151 153.138 194.151Z" fill="#FFA74F"/>
<path d="M136.939 203.572C136.718 203.572 136.498 203.396 136.498 203.132C136.498 202.868 136.674 202.692 136.939 202.692C138.351 202.692 143.648 196.968 145.987 194.019C147.135 192.566 147.4 191.553 147.002 190.012C146.738 189.792 145.722 189.22 144.045 189.836C143.825 189.924 143.56 189.792 143.471 189.572C143.383 189.352 143.516 189.088 143.736 189C146.296 188.119 147.62 189.396 147.709 189.44C147.753 189.484 147.797 189.572 147.841 189.616C148.371 191.509 148.106 192.786 146.693 194.547C146.561 194.635 139.367 203.528 136.939 203.572Z" fill="#C97C00"/>
<path d="M134.247 199.742L133.408 199.522C133.805 198.025 141.22 189.881 143.692 189L144.001 189.836C141.838 190.629 134.6 198.465 134.247 199.742Z" fill="#FFA74F"/>
<path d="M140.029 204.981C140.029 204.981 136.939 205.421 136.939 203.088C136.939 200.755 144.575 194.019 147.267 194.591C149.96 195.12 148.812 197.893 147.929 198.95C147.047 200.006 141.485 204.849 141.485 204.849" fill="#FFCC99"/>
<path d="M65.0393 109.314L49.0616 70.5283C47.4726 66.6981 50.2974 62.4717 54.4905 62.4717H121.27C123.654 62.4717 125.772 63.9245 126.699 66.0817L142.677 104.868C144.266 108.698 141.441 112.925 137.248 112.925H70.4682C68.0848 112.925 65.9662 111.516 65.0393 109.314Z" fill="#C2E1E4"/>
<path d="M63.2297 95.4464L62.0821 92.7169C61.9497 92.4527 62.1704 92.1445 62.4793 92.1445H67.202C67.3786 92.1445 67.511 92.2326 67.5993 92.4087L68.7468 95.1382C68.8793 95.4024 68.6586 95.7106 68.3496 95.7106H63.6269C63.4062 95.7106 63.2738 95.6225 63.2297 95.4464Z" fill="white"/>
<path d="M117.872 93.7295H70.6448V94.1697H117.872V93.7295Z" fill="white"/>
<path d="M65.8779 101.522L64.7304 98.7925C64.598 98.5284 64.8186 98.2202 65.1276 98.2202H69.8503C70.0268 98.2202 70.1593 98.3083 70.2475 98.4844L71.3951 101.214C71.5275 101.478 71.3068 101.786 70.9979 101.786H66.2752C66.0545 101.786 65.9221 101.698 65.8779 101.522Z" fill="white"/>
<path d="M120.52 99.8052H73.293V100.245H120.52V99.8052Z" fill="white"/>
<path d="M68.5262 107.598L67.3786 104.868C67.2462 104.604 67.4669 104.296 67.7759 104.296H72.4985C72.6751 104.296 72.8075 104.384 72.8958 104.56L74.0434 107.289C74.1758 107.554 73.9551 107.862 73.6461 107.862H68.9234C68.7027 107.862 68.5703 107.73 68.5262 107.598Z" fill="white"/>
<path d="M123.168 105.836H75.9413V106.277H123.168V105.836Z" fill="white"/>
<path d="M56.1676 76.4718L52.9897 68.8115C52.6808 68.063 53.2545 67.2266 54.049 67.2266H67.2461C67.7316 67.2266 68.1288 67.4907 68.3054 67.931L71.4833 75.5913C71.7922 76.3398 71.2184 77.1763 70.424 77.1763H57.2269C56.7414 77.1763 56.3442 76.9121 56.1676 76.4718Z" fill="white"/>
<path d="M75.2791 75.7674L72.4102 68.8115C72.1012 68.063 72.675 67.2266 73.4695 67.2266H120.123C120.608 67.2266 121.005 67.4907 121.182 67.931L124.36 75.5913C124.669 76.3398 124.095 77.1763 123.301 77.1763H77.3977C76.4708 77.1763 75.6322 76.648 75.2791 75.7674Z" fill="#F0F0E7"/>
<path d="M60.493 88.2264L57.6241 81.2705C57.3152 80.522 57.8889 79.6855 58.6834 79.6855H86.6665C87.152 79.6855 87.5493 79.9497 87.7258 80.39L90.9037 88.0503C91.2127 88.7988 90.6389 89.6352 89.8444 89.6352H62.6116C61.6848 89.6352 60.8461 89.1069 60.493 88.2264Z" fill="#F0F0E7"/>
<path d="M93.2872 88.2264L90.4183 81.2705C90.1093 80.522 90.6831 79.6855 91.4776 79.6855H125.507C125.993 79.6855 126.39 79.9497 126.567 80.39L129.745 88.0503C130.054 88.7988 129.48 89.6352 128.685 89.6352H95.4058C94.4789 89.6352 93.6403 89.1069 93.2872 88.2264Z" fill="white"/>
<path d="M155.168 62.7359L145.987 40.5032H206.897L214.621 59.3019C215.857 62.2956 213.65 65.5535 210.428 65.5535H159.361C157.551 65.5535 155.874 64.4529 155.168 62.7359Z" fill="#84C3CA"/>
<path d="M157.816 52.2138L156.095 47.9874C155.918 47.5912 156.227 47.1069 156.668 47.1069H163.907C164.172 47.1069 164.392 47.283 164.481 47.5032L166.202 51.7296C166.379 52.1258 166.07 52.6101 165.628 52.6101H158.39C158.125 52.6101 157.904 52.434 157.816 52.2138Z" fill="white"/>
<path d="M168.056 52.2138L166.335 47.9874C166.158 47.5912 166.467 47.1069 166.908 47.1069H199.173C199.438 47.1069 199.658 47.283 199.747 47.5032L201.468 51.7296C201.645 52.1258 201.336 52.6101 200.894 52.6101H168.63C168.365 52.6101 168.144 52.434 168.056 52.2138Z" fill="white"/>
<path d="M206.897 72.2013H124.448V71.3208H206.897C208.044 71.3208 209.104 70.7485 209.766 69.7799C210.428 68.8114 210.516 67.6227 210.075 66.5661L206.323 57.8051L207.118 57.4529L210.869 66.2139C211.443 67.5346 211.311 69.0755 210.516 70.2642C209.722 71.4529 208.353 72.2013 206.897 72.2013Z" fill="#FFC642"/>
<path d="M143.736 42.7924L142.412 39.6667C141.882 38.434 142.809 37.0251 144.178 37.0251H207.029C207.78 37.0251 208.486 37.4654 208.795 38.1698L210.119 41.2956C210.649 42.5283 209.722 43.9371 208.353 43.9371H145.502C144.751 43.9371 144.045 43.4968 143.736 42.7924Z" fill="#C2E1E4"/>
<path d="M12.8689 53.9748L10.1766 47.4591C9.47035 45.6981 10.7503 43.761 12.6482 43.761H87.417C89.8445 43.761 92.0073 45.2138 92.9341 47.4151L95.6265 53.9308C96.3327 55.6918 95.0527 57.6289 93.1548 57.6289H18.3861C15.9585 57.6289 13.7958 56.1761 12.8689 53.9748Z" fill="#FFC642"/>
<path d="M151.24 87.1257L142.059 64.849C141.265 62.9559 142.677 60.8867 144.707 60.8867H182.533C183.681 60.8867 184.74 61.5911 185.181 62.6477L194.362 84.9245C195.156 86.8175 193.744 88.8867 191.714 88.8867H153.888C152.74 88.8867 151.681 88.1823 151.24 87.1257Z" fill="white"/>
<path d="M143.162 81.9748L133.982 59.6981C133.187 57.805 134.6 55.7358 136.63 55.7358H174.456C175.603 55.7358 176.663 56.4402 177.104 57.4969L186.285 79.7736C187.079 81.6667 185.667 83.7358 183.636 83.7358H145.811C144.663 83.7358 143.604 83.0314 143.162 81.9748Z" fill="#C2E1E4"/>
<path d="M143.118 74.2264C143.118 74.2264 147.444 67.6666 150.533 68.327C153.623 68.9874 156.271 70.8805 157.154 71.3207C158.037 71.761 164.481 64.5849 168.188 63.9245C171.896 63.2641 179.62 71.0566 179.62 71.0566L183.018 79.6855H145.325L143.118 74.2264Z" fill="#84C3CA"/>
<path d="M97.2597 128.597L80.0461 86.8175C78.8544 83.9559 80.973 80.8301 84.0626 80.8301H154.109C155.874 80.8301 157.463 81.8867 158.125 83.5156L175.339 125.295C176.53 128.157 174.412 131.283 171.322 131.283H101.276C99.5107 131.283 97.9217 130.226 97.2597 128.597Z" fill="#84C3CA"/>
<path d="M256.198 72.9497C256.198 72.9497 255.669 72.6856 254.477 73.478C253.285 74.2705 253.374 75.4592 253.374 75.4592C253.374 75.4592 254.477 74.7107 254.874 75.3271C255.271 75.9875 254.433 76.2956 254.389 76.3837C254.345 76.4717 254.609 77.1321 255.448 76.8239C256.287 76.5158 257.125 74.9749 257.169 74.3145C257.213 73.6982 257.037 73.1699 256.198 72.9497Z" fill="#FFA74F"/>
<path d="M213.032 217H101.364C99.643 217 98.2747 215.635 98.2747 213.918V208.107C98.2747 206.39 99.643 205.025 101.364 205.025H213.032C214.753 205.025 216.122 206.39 216.122 208.107V213.918C216.122 215.591 214.709 217 213.032 217Z" fill="#FFC642"/>
<path d="M232.011 71.0566C232.011 71.0566 232.761 72.9057 230.908 77.1761C229.054 81.4466 227.509 84.5283 228.303 85.9371C229.098 87.346 232.496 86.6416 233.688 86.3334C234.88 86.0252 236.91 86.9497 237.131 84.9686C237.352 82.9875 236.822 82.5472 236.822 82.5472" fill="url(#paint1_linear_655_14097)"/>
<path d="M229.495 80.4339C229.495 80.4339 231.967 75.371 232.055 73.5219C232.143 71.6729 232.673 69.2515 229.583 68.1069C226.494 66.9622 225.479 68.371 224.949 69.5597C224.419 70.7924 223.581 79.6855 223.757 82.415C223.757 82.415 228.612 82.5911 229.054 81.5345C229.495 80.4779 229.495 80.4339 229.495 80.4339Z" fill="url(#paint2_linear_655_14097)"/>
<path d="M239.426 77.9685C240.206 77.9685 240.838 77.3377 240.838 76.5597C240.838 75.7816 240.206 75.1509 239.426 75.1509C238.646 75.1509 238.014 75.7816 238.014 76.5597C238.014 77.3377 238.646 77.9685 239.426 77.9685Z" fill="#C97C00"/>
<path d="M227.509 76.4717C228.289 76.4717 228.921 75.8409 228.921 75.0629C228.921 74.2848 228.289 73.6541 227.509 73.6541C226.729 73.6541 226.097 74.2848 226.097 75.0629C226.097 75.8409 226.729 76.4717 227.509 76.4717Z" fill="#C97C00"/>
<path d="M223.492 72.6415C223.36 72.6415 223.272 72.5974 223.183 72.5094C223.007 72.3333 223.007 72.0691 223.183 71.893C224.11 71.0125 225.39 69.9559 227.112 69.9559C229.274 69.9119 230.201 70.9685 230.245 70.9685C230.422 71.1446 230.378 71.4088 230.201 71.5849C230.025 71.761 229.76 71.7169 229.583 71.5408C229.539 71.4968 228.833 70.7924 227.156 70.7924H227.112C226.008 70.7924 224.993 71.3207 223.801 72.4654C223.713 72.5974 223.625 72.6415 223.492 72.6415Z" fill="#C97C00"/>
<path d="M236.116 73.8301C235.983 73.8301 235.851 73.7861 235.763 73.654C235.63 73.4779 235.674 73.1697 235.851 73.0377C236.866 72.2892 238.278 71.4087 240 71.6289C242.118 71.893 242.913 72.9936 242.957 73.0377C243.089 73.2578 243.045 73.5219 242.869 73.654C242.692 73.7861 242.383 73.7421 242.251 73.566C242.207 73.5219 241.589 72.6855 239.912 72.5094C238.808 72.3773 237.749 72.7295 236.381 73.7421C236.336 73.7861 236.204 73.8301 236.116 73.8301Z" fill="#C97C00"/>
<path d="M233.865 92.5408C233.644 92.5408 233.468 92.5408 233.247 92.5408C228.48 92.2766 227.73 89.371 227.686 89.2389C227.641 89.0188 227.774 88.7546 227.995 88.7106C228.215 88.6666 228.48 88.7986 228.524 89.0188C228.568 89.1068 229.23 91.3961 233.291 91.6603C237.528 91.9244 240.044 89.2389 240.044 89.1949C240.221 89.0188 240.485 89.0188 240.662 89.1508C240.838 89.3269 240.839 89.5911 240.706 89.7672C240.574 89.8993 238.102 92.5408 233.865 92.5408Z" fill="#C97C00"/>
<path d="M233.644 102.27C233.644 102.27 244.767 104.956 252.623 94.3459C252.623 94.3459 250.725 104.031 242.516 106.937C236.116 109.226 233.247 108.258 233.247 108.258L233.644 102.27Z" fill="#FFA74F"/>
<path d="M292.788 174.208L291.596 178.478C291.596 178.478 287.359 180.371 279.106 179.227C270.852 178.082 268.822 175.969 268.822 175.969L269.881 172.799C269.881 172.799 275.001 175.308 280.518 175.22C288.374 175.044 292.788 174.208 292.788 174.208Z" fill="#FFA74F"/>
<path d="M216.519 141.849C215.018 141.849 213.87 142.421 211.796 145.811C209.722 149.201 211.752 149.113 213.826 149.73C215.901 150.346 216.077 151.05 216.872 151.667C217.666 152.283 220.712 150.258 220.006 146.78C219.299 143.258 218.593 141.849 216.519 141.849Z" fill="#FFA74F"/>
<path d="M141.794 205.201L141.22 204.541C143.162 202.868 146.958 199.522 147.62 198.686C148.15 198.025 148.768 196.748 148.459 195.912C148.282 195.472 147.885 195.164 147.223 195.031C146.208 194.811 144.001 196 141.662 197.893C139.234 199.918 137.38 202.164 137.38 203.132H136.498C136.498 201.679 138.793 199.126 141.088 197.233C142.059 196.44 145.458 193.799 147.355 194.195C148.591 194.459 149.077 195.12 149.253 195.604C149.695 196.837 148.9 198.465 148.282 199.258C147.4 200.315 142.015 204.981 141.794 205.201Z" fill="#FFA74F"/>
<path d="M158.125 201.723C158.125 201.723 165.187 196.66 165.628 191.906C166.07 187.151 159.361 190.849 159.361 190.849L158.125 201.723Z" fill="#FFA74F"/>
<g style="mix-blend-mode:multiply">
<g opacity="0.7">
<path opacity="0.7" d="M151.593 160.736V162.717H154.197V166.899H152.431V179.535H160.729C160.729 179.535 163.819 179.843 163.819 177.201C163.819 174.56 163.819 169.277 163.819 169.277C163.819 169.277 163.863 167.692 162.451 167.119L162.495 164.17C162.495 164.17 162.318 162.541 159.846 162.717V160.736H151.593Z" fill="#C4E2E5"/>
</g>
</g>
<path d="M112.708 97.9561L110.589 92.8051C110.368 92.2328 110.766 91.6165 111.384 91.6165H132.04C132.393 91.6165 132.702 91.8366 132.834 92.1448L135.174 97.78C135.394 98.3523 134.997 98.9687 134.379 98.9687H114.297C113.59 99.0127 112.973 98.6165 112.708 97.9561Z" fill="#C2E1E4"/>
<path d="M129.039 107.333L126.92 102.182C126.699 101.61 127.097 100.994 127.714 100.994H148.371C148.724 100.994 149.033 101.214 149.165 101.522L151.504 107.157C151.725 107.73 151.328 108.346 150.71 108.346H130.627C129.921 108.39 129.303 107.994 129.039 107.333Z" fill="#57ADB7"/>
<path d="M105.16 117.767L103.042 112.616C102.821 112.044 103.218 111.428 103.836 111.428H124.492C124.845 111.428 125.154 111.648 125.287 111.956L127.626 117.591C127.847 118.164 127.45 118.78 126.832 118.78H106.749C106.043 118.78 105.425 118.384 105.16 117.767Z" fill="#F0F0E7"/>
<path d="M98.9869 90.1818L98.1679 90.5105L109.652 118.977L110.471 118.649L98.9869 90.1818Z" fill="white"/>
<path d="M117.04 90.1845L116.221 90.5132L127.705 118.98L128.524 118.651L117.04 90.1845Z" fill="white"/>
<path d="M132.621 90.1864L131.802 90.5151L143.286 118.982L144.105 118.653L132.621 90.1864Z" fill="white"/>
<path d="M145.201 90.1913L144.382 90.52L155.866 118.987L156.685 118.658L145.201 90.1913Z" fill="white"/>
<path d="M87.6376 44.9496C88.1672 49.0439 85.1659 52.2137 80.9728 52.2137C76.7798 52.2137 72.7191 49.0439 71.8364 44.9496C70.9536 40.6792 73.8667 37.0691 78.4128 37.0691C82.959 37.0691 87.1079 40.6351 87.6376 44.9496Z" fill="white"/>
<path d="M79.428 48.2957L74.4846 44.0693L75.6322 42.7045L79.3398 45.9183L87.6817 37.6416L88.9176 38.8743L79.428 48.2957Z" fill="#FFC642"/>
<path d="M41.5141 52.5659H18.1213V53.4464H41.5141V52.5659Z" fill="white"/>
<path d="M55.6381 52.5659H43.9417V53.4464H55.6381V52.5659Z" fill="white"/>
<path d="M70.5564 52.5659H57.5359V53.4464H70.5564V52.5659Z" fill="white"/>
<path d="M158.125 123.359H107.058V124.239H158.125V123.359Z" fill="white"/>
<path d="M183.416 79.9057H145.193L139.014 64.7611L139.411 64.585L145.502 79.4655H182.754L176.928 64.7611L177.325 64.585L183.416 79.9057Z" fill="white"/>
<path d="M159.361 66.0378L161.788 72.2014H165.055L162.627 66.0378H159.361Z" fill="#F0F0E7"/>
<path d="M194.097 75.415L196.525 81.5345H199.747L197.319 75.415H194.097Z" fill="#84C3CA"/>
<path d="M116.239 40.6792L118.666 46.7987H121.888L119.461 40.6792H116.239Z" fill="#84C3CA"/>
<path d="M141.971 12.415L144.398 18.5345H147.62L145.237 12.415H141.971Z" fill="#84C3CA"/>
<path d="M269.969 89.1069L272.397 95.2264H275.619L273.235 89.1069H269.969Z" fill="#84C3CA"/>
<path d="M141.971 52.6982L144.398 58.8177H147.62L145.237 52.6982H141.971Z" fill="white"/>
<path d="M200.541 119.44C202.077 119.44 203.322 118.198 203.322 116.667C203.322 115.135 202.077 113.893 200.541 113.893C199.005 113.893 197.76 115.135 197.76 116.667C197.76 118.198 199.005 119.44 200.541 119.44Z" fill="white"/>
<g style="mix-blend-mode:multiply">
<g opacity="0.7">
<path opacity="0.7" d="M147.576 43.761L212.105 53.0063L208.265 43.761H147.576Z" fill="#C4E2E5"/>
</g>
</g>
<path d="M250.814 137.975H265.467L262.289 149.289C262.289 149.289 261.804 152.547 258.273 152.547C256.154 152.547 252.138 152.679 249.048 152.635C247.724 152.591 246.797 151.314 247.194 150.082L250.814 137.975Z" fill="#4333E2"/>
<path d="M274.118 130.315C274.03 130.315 273.942 130.315 273.853 130.27C273.544 130.094 273.368 129.742 273.544 129.39C278.179 119.572 281.622 118.164 281.798 118.12C282.151 117.987 282.504 118.164 282.637 118.516C282.769 118.868 282.593 119.22 282.284 119.352C282.195 119.396 279.062 120.849 274.736 129.962C274.604 130.182 274.383 130.315 274.118 130.315Z" fill="#2E2EA6"/>
<path d="M214.356 122.302C214.268 122.302 214.179 122.302 214.135 122.258C213.782 122.126 213.606 121.73 213.738 121.422C217.799 110.635 220.844 107.113 220.977 106.981C221.241 106.717 221.639 106.673 221.904 106.937C222.168 107.201 222.212 107.598 221.948 107.862C221.904 107.906 218.858 111.428 214.93 121.906C214.841 122.126 214.621 122.302 214.356 122.302Z" fill="#2E2EA6"/>
<path d="M286.256 163.862C286.256 163.862 291.596 164.654 297.378 163.421V167.164C297.378 167.164 290.052 168.308 286.256 167.78V163.862Z" fill="#2E2EA6"/>
<g opacity="0.7">
<g opacity="0.7">
<path opacity="0.7" d="M138.793 205.025C138.793 205.025 147.179 212.069 155.433 212.73C163.686 213.39 157.772 205.025 157.772 205.025H138.793Z" fill="#C4E2E5"/>
</g>
</g>
<path d="M275.486 128.641L271.779 119.616C271.47 118.824 272.044 117.987 272.882 117.987H331.232C331.717 117.987 332.159 118.295 332.335 118.736L336.043 127.761C336.352 128.553 335.778 129.39 334.939 129.39H276.59C276.104 129.346 275.663 129.082 275.486 128.641Z" fill="#FFC642"/>
<path d="M289.478 126.176L287.756 121.95C287.58 121.553 287.889 121.069 288.33 121.069H317.593C317.858 121.069 318.079 121.245 318.167 121.465L319.888 125.692C320.065 126.088 319.756 126.572 319.315 126.572H290.052C289.787 126.572 289.566 126.396 289.478 126.176Z" fill="#FFE8B3"/>
<path d="M326.994 118.12C327.348 120.937 325.273 123.182 322.36 123.182C319.447 123.182 316.622 120.981 316.048 118.12C315.43 115.17 317.461 112.66 320.595 112.66C323.728 112.66 326.597 115.17 326.994 118.12Z" fill="white"/>
<path d="M322.36 123.623C319.226 123.623 316.225 121.245 315.607 118.252C315.298 116.711 315.607 115.214 316.534 114.069C317.505 112.925 318.917 112.264 320.595 112.264C323.949 112.264 326.995 114.906 327.436 118.119C327.612 119.572 327.215 120.937 326.288 121.994C325.317 123.006 323.949 123.623 322.36 123.623ZM320.595 113.101C319.182 113.101 317.99 113.629 317.24 114.597C316.49 115.522 316.225 116.755 316.49 118.031C317.019 120.629 319.668 122.742 322.36 122.742C323.684 122.742 324.832 122.258 325.626 121.377C326.377 120.541 326.686 119.396 326.553 118.208C326.2 115.434 323.464 113.101 320.595 113.101Z" fill="#FFB200"/>
<path d="M321.875 119.528C321.698 119.528 321.522 119.44 321.477 119.22L319.8 114.73C319.712 114.509 319.844 114.245 320.065 114.157C320.286 114.069 320.551 114.201 320.639 114.421L322.316 118.912C322.404 119.132 322.272 119.396 322.051 119.484C322.007 119.528 321.919 119.528 321.875 119.528Z" fill="#FF690A"/>
<path d="M322.404 121.069C322.228 121.069 322.051 120.981 322.007 120.805L321.919 120.629C321.831 120.409 321.919 120.145 322.184 120.057C322.404 119.969 322.669 120.057 322.757 120.321L322.846 120.497C322.934 120.717 322.846 120.981 322.581 121.069C322.537 121.069 322.493 121.069 322.404 121.069Z" fill="#FF690A"/>
<path d="M278.664 126.176L276.943 121.95C276.766 121.553 277.075 121.069 277.517 121.069H284.755C285.02 121.069 285.241 121.245 285.329 121.465L287.05 125.692C287.227 126.088 286.918 126.572 286.477 126.572H279.238C279.017 126.572 278.752 126.396 278.664 126.176Z" fill="#FFE8B3"/>
</g>
<defs>
<linearGradient id="paint0_linear_655_14097" x1="130.137" y1="98.4995" x2="153.003" y2="135.973" gradientUnits="userSpaceOnUse">
<stop stop-color="#2494A1"/>
<stop offset="0.998" stop-color="white" stop-opacity="0"/>
</linearGradient>
<linearGradient id="paint1_linear_655_14097" x1="235.608" y1="75.2345" x2="232.202" y2="84.5954" gradientUnits="userSpaceOnUse">
<stop offset="0.00200123" stop-color="#FFCC99" stop-opacity="0"/>
<stop offset="0.2661" stop-color="#FFD19F" stop-opacity="0.2646"/>
<stop offset="0.6161" stop-color="#FFE0B0" stop-opacity="0.6153"/>
<stop offset="1" stop-color="#FFF7CA"/>
</linearGradient>
<linearGradient id="paint2_linear_655_14097" x1="220.272" y1="70.3771" x2="230.993" y2="78.4012" gradientUnits="userSpaceOnUse">
<stop stop-color="#FFCC99" stop-opacity="0.3"/>
<stop offset="1" stop-color="#FFB759"/>
</linearGradient>
<clipPath id="clip0_655_14097">
<rect width="329" height="217" fill="white" transform="translate(10)"/>
</clipPath>
</defs>
</svg>
