<svg width="370" height="226" viewBox="0 0 370 226" fill="none" xmlns="http://www.w3.org/2000/svg">
<rect width="370" height="220" fill="#8FD7AC"/>
<g clip-path="url(#clip0_655_14794)">
<path d="M46.9342 195.973L96.8988 92.4133C101.522 82.8613 111.195 76.7612 121.81 76.7612H304.825C317.375 76.7612 325.632 89.9071 320.159 101.256L270.194 204.815C265.57 214.367 255.898 220.467 245.283 220.467H62.268C49.7179 220.467 41.4612 207.321 46.9342 195.973Z" fill="#F0F0E7"/>
<path d="M245.283 206.896H62.268C56.276 206.896 50.8031 203.869 47.6419 198.81C44.4808 193.75 44.1034 187.461 46.7455 182.07L96.71 78.5108C101.334 68.9114 111.195 62.7168 121.81 62.7168H304.825C310.817 62.7168 316.29 65.7432 319.451 70.8029C322.612 75.8627 322.989 82.1519 320.347 87.5426L270.383 191.149C265.759 200.701 255.898 206.896 245.283 206.896ZM46.9342 182.212L47.1701 182.306C44.6224 187.555 44.9526 193.655 48.0666 198.573C51.1333 203.491 56.4648 206.47 62.268 206.47H245.283C255.71 206.47 265.429 200.37 269.958 190.96L319.923 87.4008C322.47 82.1519 322.14 76.0518 319.026 71.1339C315.912 66.2161 310.628 63.237 304.825 63.237H121.81C111.383 63.237 101.664 69.337 97.1347 78.7472L47.1701 182.306L46.9342 182.212Z" fill="#A8D4DA"/>
<path d="M111.525 223.21C111.525 223.21 113.743 213.847 120.489 208.551C126.01 204.201 129.784 208.551 129.784 208.551C129.784 208.551 130.586 200.843 137.805 201.552C145.023 202.262 146.628 205.477 146.628 205.477C146.628 205.477 150.544 202.404 153.563 203.491C156.536 204.579 159.555 207.794 159.555 207.794L132.002 210.915L111.525 223.21Z" fill="#FCD885"/>
<path d="M159.508 209.402C159.508 209.402 142.853 205.099 129.784 210.679C116.715 216.259 111.525 223.21 111.525 223.21C111.525 223.21 119.876 228.27 126.481 224.77C133.087 221.318 133.558 214.84 133.558 214.84C133.558 214.84 137.805 218.339 142.995 216.873C148.185 215.455 149.458 211.672 149.458 211.672C149.458 211.672 153.988 214.982 159.508 209.402Z" fill="#FFC633"/>
<path d="M130.775 205.288C130.775 205.288 130.728 207.132 132.19 208.22C133.653 209.307 134.644 215.597 134.644 215.597C134.644 215.597 136.672 216.779 137.805 216.921L138.324 204.248L132.803 202.687L130.775 205.288Z" fill="#FFDEAF"/>
<path d="M252.973 219.096H163.471C160.216 219.096 157.574 216.448 157.574 213.185V7.91091C157.574 4.64809 160.216 2 163.471 2H252.973C256.229 2 258.871 4.64809 258.871 7.91091V213.185C258.871 216.448 256.229 219.096 252.973 219.096Z" fill="#A8D4DA"/>
<path d="M157.621 116.341C157.621 116.341 164.226 111.139 171.35 112.085C178.475 112.983 182.579 105.275 182.108 103.762C181.683 102.202 175.502 100.452 169.746 100.783C163.943 101.114 157.668 104.85 157.668 104.85V116.341H157.621Z" fill="url(#paint0_linear_655_14794)"/>
<path d="M248.161 56.2859H169.086V62.9534H248.161V56.2859Z" fill="#A7D4D9"/>
<path d="M202.537 130.243H169.086V135.87H202.537V130.243Z" fill="#A7D4D9"/>
<path d="M240.801 154.785L234.007 213.043V219.049L227.826 219.096C227.826 219.096 221.834 203.302 223.863 192.142C225.892 180.982 235.611 137.856 235.611 137.856L240.801 154.785Z" fill="url(#paint1_linear_655_14794)"/>
<path d="M202.537 120.786C202.537 120.786 207.962 125.656 213.671 124.711C219.38 123.765 221.739 117.949 221.739 117.949C221.739 117.949 226.221 118.374 227.778 115.773C229.335 113.173 225.608 101.398 225.608 101.398C225.608 101.398 217.682 103.573 214.945 108.16C212.256 112.7 202.537 120.786 202.537 120.786Z" fill="url(#paint2_linear_655_14794)"/>
<path d="M237.026 55.3401C237.026 55.3401 240.989 60.3525 242.499 64.372C244.009 68.3914 247.312 67.4456 248.869 69.0061C250.426 70.5666 248.963 72.2217 250.567 73.5457C252.171 74.8697 252.879 74.255 252.879 74.255V84.6109L239.291 76.5248L235.422 63.8991L237.026 55.3401Z" fill="#172B4D"/>
<path d="M219.05 67.0674C219.05 67.0674 220.041 72.4581 218.767 76.1465C217.493 79.835 213.388 82.5776 213.719 86.3606C214.049 90.1436 217.682 90.711 217.682 90.711L234.431 78.8419L227.118 67.0674H219.05Z" fill="#172B4D"/>
<path d="M167.859 98.0877C167.859 98.0877 171.916 95.7706 175.455 96.1489C178.993 96.5272 182.815 99.2699 183.57 100.121C184.325 100.972 185.835 100.689 186.306 101.256C186.778 101.823 186.873 102.722 186.873 102.722C186.873 102.722 201.687 111.565 203.669 112.274C205.651 112.983 208.151 108.964 209.803 107.309L218.437 111.186C218.437 111.186 213.294 121.353 206.689 122.11C202.584 122.583 186.92 110.288 184.136 107.782C181.4 105.275 177.625 106.127 174.134 104.566C170.737 102.911 167.859 98.0877 167.859 98.0877Z" fill="#FFCC99"/>
<path d="M173.285 97.4731C173.285 97.4731 175.219 97.3312 177.814 99.1282C180.409 100.925 182.438 101.918 183.051 103.148C183.665 104.33 183.523 105.465 181.73 105.276C179.89 105.086 174.464 100.783 172.719 100.074C170.973 99.3646 168.897 99.5065 169.463 98.7026C170.029 97.8987 173.285 97.4731 173.285 97.4731Z" fill="#FFA74F"/>
<path d="M206.783 110.713C206.783 110.713 207.632 112.7 210.322 114.118C213.011 115.537 215.559 115.631 215.559 115.631L217.21 113.267L208.812 108.491L206.783 110.713Z" fill="#FFA74F"/>
<path d="M229.619 201.127L228.769 209.497C228.769 209.497 226.741 210.442 224.382 210.679C222.023 210.915 219.805 208.882 219.805 208.882L220.985 200.276L229.619 201.127Z" fill="#FFCC99"/>
<path d="M249.435 200.89L250.048 208.078C250.048 208.078 250.85 208.976 253.02 208.882V200.559L249.435 200.89Z" fill="#FFCC99"/>
<path d="M220.513 203.775C220.513 203.775 221.504 204.768 224.287 205.052C227.071 205.335 229.288 204.579 229.288 204.579L229.477 202.829L220.702 202.451L220.513 203.775Z" fill="#FFA74F"/>
<path d="M249.576 202.12L249.718 203.586C249.718 203.586 251.039 204.011 253.115 203.397V201.789L249.576 202.12Z" fill="#FFA74F"/>
<path d="M223.108 131.993C223.108 131.993 222.825 134.877 222.919 136.769C223.061 139.748 223.108 145.281 222.589 149.726C222.07 154.123 219.381 201.6 219.381 201.6C219.381 201.6 221.504 203.728 226.127 203.491C230.515 203.255 230.704 202.545 230.704 202.545L237.168 142.491C237.168 142.491 240.376 152.894 242.924 162.351C245.424 171.809 248.019 201.742 248.019 201.742C248.019 201.742 249.954 202.593 253.115 201.789L252.973 136.485V130.243C252.926 130.243 234.997 133.837 223.108 131.993Z" fill="#5041FF"/>
<path d="M207.585 107.734C207.585 107.734 209.473 110.619 213.672 112.179C217.871 113.74 219.9 113.362 219.9 113.362L222.966 109.058C222.966 109.058 224.382 111.375 224.476 116.293C224.571 121.211 223.061 127.028 223.061 131.993C223.061 131.993 236.743 133.884 244.764 132.702C252.785 131.52 252.879 130.243 252.879 130.243V84.6109C252.879 84.6109 250.614 76.3356 242.122 75.5317C233.629 74.7278 227.732 77.0449 224.287 79.7876C220.843 82.5302 207.585 107.734 207.585 107.734Z" fill="#FFC633"/>
<path d="M248.019 112.558C248.019 112.558 245.707 118.327 243.396 120.455C241.084 122.583 243.915 123.197 244.811 123.292C245.707 123.386 251.322 121.589 252.454 118.563C253.539 115.442 248.019 112.558 248.019 112.558Z" fill="#FF9D00"/>
<path d="M219.711 103.904C219.711 103.904 216.833 106.836 217.918 108.585C219.003 110.335 222.636 108.633 222.636 108.633C222.636 108.633 220.183 105.37 219.711 103.904Z" fill="#FF9D00"/>
<path d="M86.519 133.553H95.389C97.0403 133.553 98.3614 134.877 98.3614 136.532V140.788H95.4833V136.296H79.4418V140.788H76.5638V135.965C76.5638 134.641 77.649 133.553 78.97 133.553H86.519Z" fill="#A7D4D9"/>
<path d="M82.0372 133.553C82.0372 133.553 81.5182 134.168 82.0372 136.296H84.0187V133.553H82.0372Z" fill="#87C4CA"/>
<path d="M103.835 169.586H69.5812C68.1186 169.586 66.9391 168.404 66.9391 166.938V143.389C66.9391 141.923 68.1186 140.741 69.5812 140.741H103.882C105.344 140.741 106.524 141.923 106.524 143.389V166.985C106.477 168.404 105.297 169.586 103.835 169.586Z" fill="#D0E8EA"/>
<path d="M106.477 140.741H71.0911V169.586H106.477V140.741Z" fill="#A7D4D9"/>
<path d="M96.6158 140.741C96.6158 140.741 97.1347 142.822 95.8137 148.591C94.4454 154.596 85.4339 169.586 85.4339 169.586H96.9932C96.9932 169.586 100.202 156.346 101.145 149.82C102.089 143.294 101.145 140.741 101.145 140.741H96.6158Z" fill="#87C4CA"/>
<path d="M157.621 191.953C157.621 191.953 153.516 182.354 137.805 181.266C122.093 180.179 112.704 178.571 109.496 180.652C109.496 180.652 117.328 181.692 119.404 185.806C121.433 189.967 121.15 193.987 124.122 196.824C124.122 196.824 131.341 193.23 132.285 195.925C133.228 198.621 129.925 201.505 129.925 201.505C129.925 201.505 134.785 205.667 142.995 204.342C151.204 203.018 154.318 201.505 154.318 201.505C154.318 201.505 151.629 196.966 153.516 196.824C155.403 196.682 157.621 200.229 157.621 200.229V191.953Z" fill="#FFB200"/>
<path d="M146.439 197.486L149.411 206.423C149.411 206.423 148.751 209.024 144.363 210.395C139.975 211.767 137.663 209.97 137.663 209.97L134.644 200.607L146.439 197.486Z" fill="#FFCC99"/>
<path d="M136.531 206.376L136.955 207.7L138.654 209.024C138.654 209.024 140.777 209.402 144.693 207.7C148.609 205.997 148.704 204.201 148.704 204.201L148.326 201.505L136.531 206.376Z" fill="#FFA74F"/>
<path d="M122.282 179.99L127.095 195.594L130.728 194.932L127.331 180.462C127.331 180.462 123.651 180.131 122.282 179.99Z" fill="#FFDEAF"/>
<path d="M98.4561 116.341C98.4561 116.341 97.1822 122.961 97.654 129.581C98.1258 136.201 98.7864 139.984 98.9279 143.436C99.0695 146.652 98.7392 149.442 95.9083 156.062C92.0867 164.952 70.2891 197.202 70.2891 197.202C70.2891 197.202 72.3179 202.072 76.5642 204.768C80.8105 207.463 85.6701 206.186 85.6701 206.186C85.6701 206.186 108.458 172.281 112.422 161.405C116.338 150.529 116.338 150.529 116.338 150.529L133.842 204.815C133.842 204.815 136.342 207.889 142.334 206.234C148.609 204.484 148.609 199.755 148.609 199.755C148.609 199.755 137.711 164.195 135.21 153.65C132.709 143.105 128.746 121.637 128.746 121.637C128.746 121.637 109.968 123.907 98.4561 116.341Z" fill="#FFC633"/>
<path d="M111.525 142.963C111.525 142.963 109.071 143.862 108.836 145.848C108.6 147.834 111.1 149.063 113.082 149.3C115.063 149.536 115.913 149.3 115.913 149.3L114.686 146.084L111.525 142.963Z" fill="#FF9D00"/>
<path d="M70.336 197.202C70.336 197.202 73.4971 194.932 80.0553 198.337C86.6134 201.694 85.7642 206.187 85.7642 206.187C85.7642 206.187 82.1784 207.842 76.6583 204.768C71.0437 201.647 70.336 197.202 70.336 197.202Z" fill="#FF9D00"/>
<path d="M116.196 150.624L114.544 146.226C114.025 145.895 111.006 143.767 109.449 139.511C107.798 135.019 108.081 130.243 108.081 130.196L108.553 130.243C108.553 130.29 108.269 134.972 109.874 139.37C111.478 143.72 114.828 145.848 114.828 145.848L114.875 145.895L116.573 150.435L116.196 150.624Z" fill="#FF9D00"/>
<path d="M119.074 69.2898L118.508 65.696C118.508 65.696 122.329 65.7906 122.99 64.3247C123.651 62.8588 123.698 59.5014 123.698 59.5014C123.698 59.5014 125.727 59.3122 125.538 58.4611C125.302 57.5626 123.792 54.016 123.792 54.016C123.792 54.016 123.556 51.8408 123.037 49.6656C122.518 47.4904 121.527 46.8284 120.348 45.788C119.168 44.7477 114.592 42.5252 110.629 43.471C106.665 44.4167 106.477 45.0787 105.203 46.4974C103.929 47.916 104.401 51.9354 103.787 55.1037C103.221 58.3192 106.099 62.5278 106.665 63.4735L107.043 70.5666L119.074 69.2898Z" fill="#FFCC99"/>
<path d="M121.527 46.9702C121.527 46.9702 120.065 47.8686 118.272 48.2942C118.272 48.2942 119.263 46.119 119.876 45.6461C120.018 45.5516 121.527 46.9702 121.527 46.9702Z" fill="#FFA74F"/>
<path d="M116.385 53.1649C116.007 52.9758 115.394 52.8339 114.639 53.1176C113.507 53.5432 113.129 55.3401 114.026 56.2386C115.488 57.7045 116.149 57.2789 116.998 57.6099C117.659 57.8464 117.611 59.0286 117.328 59.8797C116.715 61.8658 115.441 62.5278 114.733 63.2844C114.026 64.041 111.761 65.0813 109.543 64.9395C107.42 64.7976 105.816 62.6697 105.061 61.8185C104.07 60.7309 102.608 58.2247 102.466 56.1913C102.325 54.1107 103.032 49.5238 103.363 48.2943C103.693 47.0649 104.967 43.0927 109.591 42.4307C114.214 41.7687 119.64 40.8702 121.716 42.147C123.792 43.4237 122.613 45.7881 121.48 47.0176C121.48 47.0176 120.772 46.4028 119.829 45.6935C119.829 45.6935 119.687 47.3959 118.225 48.3416C116.762 49.2874 116.998 50.5641 117.14 51.1789C117.187 51.5099 117.375 51.9827 117.423 52.4556C117.47 52.9758 116.904 53.4014 116.385 53.1649Z" fill="#172B4D"/>
<path d="M181.211 102.107C181.211 102.107 182.485 102.107 183.004 103.147C183.523 104.188 183.193 107.025 183.193 107.025C183.193 107.025 181.73 106.268 179.324 105.796L181.211 102.107Z" fill="#FFA74F"/>
<path d="M161.254 98.0405C161.254 98.0405 162.244 97.0948 164.556 96.5273C166.868 95.9599 172.719 95.6289 173.473 95.9599C174.228 96.2909 174.559 96.9529 172.341 98.0878C171.869 98.3242 170.312 98.7025 170.312 98.7025C170.312 98.7025 172.86 100.216 175.88 101.02C178.852 101.823 180.975 101.823 181.305 102.155C181.636 102.486 181.541 103.62 180.786 104.188C180.032 104.755 179.465 106.127 177.908 106.931C176.54 107.64 173.804 107.593 170.784 106.505C167.765 105.417 163.518 105.417 163.518 105.417C163.518 105.417 160.971 98.9863 161.254 98.0405Z" fill="#FFCC99"/>
<path d="M161.253 98.0407C161.253 98.0407 161.961 97.3313 163.235 96.9058C163.235 96.9058 164.839 97.7569 165.783 100.736C166.632 103.384 166.679 105.607 166.679 105.607L163.518 105.417L161.253 98.0407Z" fill="#FFA74F"/>
<path d="M82.1787 140.741C82.1787 140.741 82.1316 141.923 83.1695 142.112C84.2075 142.301 84.9152 140.741 84.9152 140.741H82.1787Z" fill="#87C4CA"/>
<path d="M87.8872 123.434C87.8872 123.434 85.5282 127.737 84.1127 131.378C82.6973 135.019 83.8297 135.776 83.3107 137.904C82.7917 140.032 84.1127 141.923 85.3866 141.308C86.6605 140.694 86.6605 134.688 87.8872 133.553H93.7848C93.7848 133.553 96.3326 132.797 97.3706 129.534C98.4085 126.318 96.4741 123.008 96.4741 123.008L87.8872 123.434Z" fill="#FFCC99"/>
<path d="M87.8872 133.553C87.8872 133.553 88.7837 130.669 90.0576 129.676C91.3314 128.683 93.7848 129.534 93.7848 131.425C93.7848 133.08 93.7377 133.553 93.7377 133.553H87.8872Z" fill="#FFA74F"/>
<path d="M90.954 126.224C90.954 126.224 95.2003 127.832 97.6537 128.068L97.5121 126.177L90.954 126.224Z" fill="#FFA74F"/>
<path d="M97.937 120.076C97.937 120.076 99.5883 123.623 109.968 124.474C120.112 125.278 129.171 123.056 129.171 123.056L127.425 100.121C127.425 100.121 133.7 111.376 139.975 112.841C144.788 113.976 164.556 107.356 164.556 107.356C164.556 107.356 164.745 103.148 162.622 99.7429C160.829 96.8111 160.027 96.6692 160.027 96.6692L144.269 100.074C144.269 100.074 135.399 81.5373 133.606 77.7543C131.2 72.6945 124.405 68.2495 115.205 67.7767C106.005 67.3038 100.249 72.0798 98.6919 73.6403C93.2661 79.0783 88.4065 99.3646 87.1326 107.924C85.7644 117.05 85.0095 124.096 85.0095 124.096C85.0095 124.096 87.2741 125.42 91.0014 126.224C94.8703 127.075 97.5596 126.177 97.5596 126.177L97.937 120.076Z" fill="#5041FF"/>
<path d="M97.7009 120.076C97.7009 119.887 97.5593 101.965 98.1255 86.124H98.5973C98.0311 101.918 98.1727 119.84 98.1727 120.029L97.7009 120.076Z" fill="#172B4D"/>
<path d="M74.3464 196.493C74.3464 196.493 76.2336 196.351 79.3476 197.911C83.641 200.086 84.5375 202.025 84.5375 202.025L79.9137 210.064C79.9137 210.064 77.5075 210.915 73.5443 208.078C69.8642 205.477 69.8642 203.538 69.8642 203.538L74.3464 196.493Z" fill="#FFCC99"/>
<path d="M82.3671 212.996C81.6593 212.996 81.1404 212.618 80.8573 212.192C80.527 211.672 80.527 211.057 80.9045 210.632C81.046 210.395 82.1312 208.598 83.6881 209.024C84.3487 209.213 84.7733 209.781 84.8205 210.537C84.8676 211.341 84.3958 212.381 83.2163 212.807C82.9332 212.949 82.6501 212.996 82.3671 212.996ZM83.2163 209.45C82.084 209.45 81.2819 210.915 81.2819 210.915L81.2347 210.963C80.9988 211.199 80.9988 211.577 81.2347 211.956C81.5178 212.381 82.1312 212.712 83.0276 212.381C83.9712 212.05 84.3487 211.246 84.3015 210.584C84.2543 210.017 83.9712 209.639 83.4994 209.497C83.4522 209.497 83.3579 209.45 83.2163 209.45Z" fill="#5041FF"/>
<path d="M71.0438 201.647C71.0438 201.647 70.1945 201.032 68.8263 202.404C67.458 203.775 65.0046 207.369 65.0046 207.369C65.0046 207.369 63.6364 209.166 63.3061 209.733C62.9758 210.301 61.6076 212.476 62.3153 213.564C63.023 214.651 69.6283 220.467 72.0346 220.467C74.4408 220.467 99.1164 220.467 99.1164 220.467C99.1164 220.467 99.3994 218.481 97.6066 216.826C95.8137 215.171 93.3603 214.509 91.3787 213.942C89.3971 213.374 82.3672 210.679 82.3672 210.679C82.3672 210.679 82.3672 208.267 81.6594 206.943L80.5271 208.977C80.5271 208.977 77.8378 207.038 76.2808 205.903C74.6767 204.768 70.1473 203.018 70.1473 203.018L71.0438 201.647Z" fill="#786CFF"/>
<path d="M63.2589 209.733C63.2589 209.733 66.6559 208.078 72.3176 212.097C77.9793 216.117 82.2728 220.467 82.2728 220.467H70.855C70.855 220.467 64.863 218.245 62.2681 213.563C61.2301 211.672 63.2589 209.733 63.2589 209.733Z" fill="#172B4D"/>
<path d="M65.0047 207.369C65.0047 207.369 67.9299 206.423 71.5156 208.315C75.1014 210.206 82.2729 217.394 82.839 217.725C83.4052 218.056 91.0485 217.725 91.0485 217.725H98.3615C98.3615 217.725 99.3052 218.67 99.1164 220.515H82.2729C82.2729 220.515 74.7239 213.611 70.3361 211.294C65.9483 208.977 62.6928 210.395 62.6928 210.395L65.0047 207.369Z" fill="white"/>
<path d="M151.582 208.362C151.251 208.362 151.015 208.267 150.732 208.078C150.025 207.511 149.93 206.281 149.93 206.139C149.883 205.572 150.025 204.437 151.157 204.011C151.723 203.775 152.195 203.775 152.619 203.964C153.28 204.248 153.563 204.91 153.705 205.194C153.846 205.572 153.893 206.423 153.516 207.132C153.233 207.7 152.714 208.078 152.053 208.267C151.912 208.315 151.77 208.362 151.582 208.362ZM152.006 204.295C151.817 204.295 151.582 204.342 151.346 204.437C150.308 204.863 150.449 206.045 150.449 206.092V206.139C150.449 206.139 150.449 207.274 151.063 207.747C151.298 207.936 151.582 207.983 151.959 207.889C152.525 207.747 152.903 207.463 153.138 206.99C153.469 206.376 153.374 205.666 153.28 205.43C153.233 205.241 152.997 204.673 152.478 204.437C152.336 204.342 152.195 204.295 152.006 204.295Z" fill="#5041FF"/>
<path d="M136.437 210.679C136.437 210.679 136.248 208.409 136.201 208.078C136.201 208.078 138.654 207.132 140.4 208.693C142.145 210.253 142.24 210.868 142.24 210.868C142.24 210.868 146.675 210.159 148.515 207.889C148.515 207.889 149.223 206.849 149.411 206.423L148.987 205.194C148.987 205.194 149.789 205.194 150.355 205.525C150.921 205.856 154.177 206.659 156.536 206.47C158.895 206.281 166.444 203.728 167.623 204.484C168.803 205.241 169.416 206.943 169.322 208.031C169.227 209.118 154.46 220.325 154.46 220.325C154.46 220.325 140.211 220.704 138.796 220.325C137.38 219.947 136.437 210.679 136.437 210.679Z" fill="#786CFF"/>
<path d="M127.189 100.216C127.142 100.121 122.471 90.8055 121.291 86.2186L121.763 86.124C122.943 90.6636 127.566 99.9319 127.614 100.026L127.189 100.216Z" fill="#172B4D"/>
<path d="M93.5489 137.762C93.5489 137.762 93.9264 138.187 94.6813 137.667C95.4362 137.147 96.0023 135.918 96.2854 135.066C96.5685 134.215 96.0495 132.844 95.908 132.418C95.7192 131.993 94.7756 131.993 94.4925 132.608C94.2095 133.222 93.5489 137.762 93.5489 137.762Z" fill="#FFCC99"/>
<path d="M90.0577 138.566C90.0577 138.566 91.0013 139.464 92.3696 139.133C93.6906 138.755 93.8794 136.012 94.4455 134.83C95.0117 133.648 95.1061 132.182 94.2096 131.756C93.266 131.331 92.1808 132.277 91.9449 133.459C91.709 134.641 91.4731 135.492 91.4731 135.492H90.7182C90.6711 135.539 90.1521 138.235 90.0577 138.566Z" fill="#FFCC99"/>
<path d="M88.2178 138.755C88.2178 138.755 89.1615 139.653 90.5297 139.322C91.8508 138.944 92.0395 136.201 92.6057 135.019C93.1718 133.837 93.2662 132.371 92.3698 131.946C91.4261 131.52 90.341 132.466 90.1051 133.648C89.8692 134.83 89.6333 135.681 89.6333 135.681H88.8784C88.8312 135.729 88.3122 138.424 88.2178 138.755Z" fill="#FFCC99"/>
<path d="M86 138.802C86 138.802 87.3211 139.984 88.6893 139.606C90.0104 139.228 90.1991 136.485 90.7653 135.303C91.3314 134.121 91.4258 132.655 90.5294 132.229C89.5857 131.804 88.5006 132.749 88.2647 133.932C88.0288 135.114 87.7929 135.965 87.7929 135.965L86.6133 136.012C86.5662 136.012 86.0944 138.424 86 138.802Z" fill="#FFCC99"/>
<path d="M178.286 103.1C178.286 103.1 175.738 104.661 174.889 104.755C173.992 104.897 172.671 104.377 174.417 102.533C174.417 102.533 176.068 101.02 177.106 101.587C178.144 102.154 178.286 103.1 178.286 103.1Z" fill="#FFA74F"/>
<path d="M178.993 99.1282C178.993 99.1282 176.068 101.067 175.172 101.162C174.275 101.256 172.954 101.54 173.001 102.486C173.049 103.479 174.323 103.81 176.068 103.668C177.814 103.526 180.786 101.303 181.447 100.689" fill="#FFCC99"/>
<path d="M223.391 110.619C223.013 109.484 222.353 108.586 221.645 107.592C220.607 106.174 219.428 104.566 218.862 101.918C217.965 97.5203 219.286 93.1698 219.286 93.1226L219.758 93.2644C219.758 93.3117 218.484 97.5203 219.333 101.823C219.852 104.377 220.937 105.89 222.023 107.356C222.73 108.349 223.438 109.295 223.863 110.477L223.391 110.619Z" fill="#FF9D00"/>
<path d="M236.885 64.3718C236.885 64.3718 237.404 70.2355 238.347 73.3564C239.291 76.4774 239.291 76.5247 239.291 76.5247C239.291 76.5247 237.309 79.8348 234.667 81.2534C232.025 82.672 229.713 80.7805 229.713 80.7805L228.439 75.8626L236.885 64.3718Z" fill="#FFCC99"/>
<path d="M228.722 76.9976C228.722 76.9976 231.506 75.3425 233.157 73.0728C233.157 73.0728 233.818 76.9503 229.477 79.9767L228.722 76.9976Z" fill="#FFA74F"/>
<path d="M221.74 55.9547C221.268 56.5695 219.805 57.9881 220.277 64.7975C220.749 71.5595 221.504 76.903 225.703 77.8015C230.326 78.8418 235.988 69.5735 236.602 67.4455C237.215 65.3176 238.583 60.9672 236.602 57.6098C234.62 54.2051 225.042 51.8407 221.74 55.9547Z" fill="#FFCC99"/>
<path d="M223.202 66.5945C223.202 66.5945 223.768 65.6961 223.202 64.5139C222.636 63.3317 220.277 64.041 220.229 64.7503C220.229 65.4596 220.465 68.9116 220.654 69.4318C220.89 69.9519 221.834 70.3302 222.305 69.6209C222.305 69.6209 222.353 69.148 222.541 68.5806C222.777 68.0604 223.202 66.5945 223.202 66.5945Z" fill="url(#paint3_linear_655_14794)"/>
<path d="M252.313 108.869C250.331 108.869 247.972 108.255 247.878 108.207L247.736 108.16L243.16 88.7249L243.631 88.6304L248.161 107.782C248.774 107.924 251.18 108.491 252.879 108.349L252.926 108.822C252.737 108.869 252.549 108.869 252.313 108.869Z" fill="#FF9D00"/>
<path d="M218.531 209.97C218.437 209.97 218.39 209.97 218.295 209.97C217.446 209.922 216.738 209.544 216.408 208.977C216.172 208.598 216.172 208.22 216.314 207.842C216.502 207.416 216.785 207.18 217.163 207.132C218.059 206.99 219.05 208.078 219.192 208.22C219.239 208.315 219.852 209.024 219.569 209.544C219.38 209.828 219.05 209.97 218.531 209.97ZM217.304 207.605C217.257 207.605 217.257 207.605 217.21 207.605C217.021 207.653 216.833 207.794 216.738 208.031C216.644 208.22 216.691 208.456 216.785 208.693C217.021 209.118 217.635 209.449 218.295 209.497C218.956 209.544 219.097 209.402 219.097 209.355C219.192 209.166 218.956 208.787 218.767 208.551C218.531 208.267 217.823 207.605 217.304 207.605Z" fill="#5041FF"/>
<path d="M219.947 206.612C219.947 206.612 221.173 205.477 223.344 206.99C225.514 208.504 225.655 209.639 225.655 209.639C225.655 209.639 226.269 209.639 227.118 209.355C227.967 209.071 228.298 208.74 228.298 208.74L228.533 207.605C228.533 207.605 229.052 207.7 229.241 208.315C229.43 208.929 229.241 212.381 229.241 212.381C229.241 212.381 229.666 215.975 229.619 217.157C229.571 218.339 229.619 219.001 229.619 219.001H199.848C199.848 219.001 199.234 217.63 200.65 216.637C202.018 215.644 210.416 212.334 211.69 211.814C212.964 211.294 218.39 208.835 218.956 208.362C219.522 207.889 219.947 206.612 219.947 206.612Z" fill="#786CFF"/>
<path d="M220.607 60.0215C220.607 60.0215 222.022 60.5417 224.712 60.3525C227.401 60.2107 221.551 58.2246 221.551 58.2246L221.032 58.6029L220.607 60.0215Z" fill="#FFA74F"/>
<path d="M222.872 64.9394C222.683 64.703 222.4 64.372 221.362 64.3247C220.371 64.2774 219.994 64.7975 219.947 64.8448L219.569 64.5611C219.569 64.5138 220.135 63.8518 221.362 63.8518C222.589 63.8991 222.966 64.3247 223.155 64.5611L222.872 64.9394Z" fill="#C97C00"/>
<path d="M232.072 64.0882C232.402 63.899 234.761 67.1145 234.903 67.5874C235.045 68.0603 235.28 70.1409 235.28 70.1409C235.28 70.1409 236.035 71.5596 237.639 69.8572C239.244 68.1549 240.423 62.9533 238.111 57.2788C235.799 51.6043 229.43 50.7058 225.986 51.226C222.353 51.7934 220.23 54.0632 218.814 57.6571C217.399 61.2509 218.059 63.4734 217.965 64.8447C217.871 66.2161 216.833 68.675 218.012 70.0464C219.192 71.4177 220.89 70.6611 220.89 70.6611C220.89 70.6611 220.088 63.5207 220.324 61.6765C220.56 59.8323 221.079 58.5555 221.079 58.5555C221.079 58.5555 222.73 60.4943 225.703 60.3525C228.675 60.2106 229.619 60.9672 230.326 61.5346C230.751 61.9602 230.751 64.8448 232.072 64.0882Z" fill="#172B4D"/>
<path d="M234.478 66.2634C234.478 66.2634 234.054 67.4456 233.629 67.7766C233.204 68.1549 233.771 68.6278 234.478 67.9185C235.186 67.2092 235.469 66.8309 235.422 66.5472C235.375 66.2634 234.478 66.2634 234.478 66.2634Z" fill="#172B4D"/>
<path d="M231.27 64.6083C231.27 64.6083 232.921 63.0478 233.865 63.8517C234.809 64.6556 234.667 66.6889 233.629 67.5874C233.016 68.1076 232.544 68.1076 232.544 68.1076L231.27 64.6083Z" fill="#FFCC99"/>
<path d="M181.636 193.892C180.598 193.892 179.701 193.041 179.701 191.953C179.701 190.913 180.551 190.014 181.636 190.014C182.674 190.014 183.57 190.866 183.57 191.953C183.57 193.041 182.674 193.892 181.636 193.892Z" fill="#A7D4D9"/>
<path d="M187.25 193.892C186.212 193.892 185.316 193.041 185.316 191.953C185.316 190.913 186.165 190.014 187.25 190.014C188.288 190.014 189.185 190.866 189.185 191.953C189.185 193.041 188.335 193.892 187.25 193.892Z" fill="#A7D4D9"/>
<path d="M258.777 204.721L258.399 204.437C258.446 204.39 262.645 198.053 268.26 186.137C273.45 175.119 280.904 157.008 287.179 132.986C293.313 109.484 297.323 95.2034 297.984 94.8251L298.078 94.7778L298.173 94.8251L298.125 95.0616L298.314 95.2034C298.173 95.3453 296.851 97.8042 287.698 133.128C281.471 157.15 273.969 175.308 268.779 186.373C263.023 198.29 258.824 204.626 258.777 204.721Z" fill="#FF9D00"/>
<path d="M253.398 205.052C253.398 205.052 269.439 192.804 286.094 199.093C302.796 205.383 306.759 221.508 306.759 221.508C306.759 221.508 306.052 223.257 298.88 218.198C291.709 213.185 288.972 206.092 288.972 206.092C288.972 206.092 286.991 212.097 278.262 208.078C269.534 204.059 269.534 201.836 269.534 201.836C269.534 201.836 269.817 206.139 266.467 205.525C263.117 204.91 253.398 205.052 253.398 205.052Z" fill="#FFB200"/>
<path d="M253.067 205.667C250.897 205.619 250.048 207.227 250.048 207.227L249.434 210.159C249.434 210.159 248.444 211.105 246.085 213.469C243.726 215.833 242.876 219.049 242.876 219.049H248.727C251.086 219.049 253.02 217.11 253.02 214.746V205.667H253.067Z" fill="#786CFF"/>
<path d="M284.962 141.214C284.962 141.214 279.489 134.688 280.102 124.994C280.716 115.3 288.689 117.523 288.689 117.523C288.689 117.523 284.962 113.409 286.944 107.498C288.453 103.053 292.935 104.992 292.935 104.992C292.935 104.992 290.152 102.344 290.907 99.4591C291.898 95.4396 295.578 96.5272 295.578 96.5272C295.578 96.5272 294.634 90.8528 299.446 90.238L284.962 141.214Z" fill="#FF9D00"/>
<path d="M266.42 169.255C266.42 169.255 272.412 153.509 279.961 148.638C287.51 143.767 288.925 146.132 288.925 146.132C288.925 146.132 297.323 137.053 305.108 136.816C313.459 136.58 315.96 141.214 315.96 141.214C315.96 141.214 319.593 139.18 321.857 141.214" fill="#FF9D00"/>
<path d="M258.871 191.953L269.345 190.014C269.345 190.014 270.525 195.594 279.253 195.831C279.253 195.831 276.422 191.339 279.253 192.048C282.084 192.757 284.349 197.628 284.349 197.628C284.349 197.628 290.718 201.316 300.154 199.141C309.59 196.966 308.647 194.932 308.647 194.932C308.647 194.932 301.947 190.251 306.524 190.062C311.147 189.825 321.905 194.932 321.905 194.932C321.905 194.932 324.877 192.048 321.905 187.697C318.932 183.347 310.204 178.145 307.939 177.294C307.939 177.294 302.277 179.753 300.154 177.862C298.031 175.97 303.551 174.93 303.551 174.93C303.551 174.93 298.361 167.6 286.472 169.965C274.582 172.329 274.582 178.098 274.582 178.098C274.582 178.098 277.649 183.536 275.431 182.448C273.214 181.361 272.601 179.99 272.601 179.99C272.601 179.99 268.59 181.976 268.118 187.13C268.118 187.13 260.994 189.021 259.012 190.156L258.871 191.953Z" fill="#FFC633"/>
<path d="M258.871 179.658C258.871 179.658 268.166 165.141 276.988 158.379C285.811 151.617 300.673 145.99 304.212 145.848C307.75 145.706 307.75 145.753 307.75 145.753C307.75 145.753 321.621 140.93 321.81 141.261C321.999 141.639 323.745 143.058 321.81 144.808C319.876 146.605 316.243 147.74 314.356 150.104C312.468 152.468 300.437 167.695 298.408 168.924C298.408 168.924 295.342 165.378 292.369 166.087C289.397 166.796 293.077 170.816 293.077 170.816C293.077 170.816 291.662 173.889 284.962 174.22C278.262 174.599 273.072 173.842 273.072 173.842C273.072 173.842 270.808 170.154 270.147 171.478C269.487 172.802 270.147 173.369 270.147 173.369C270.147 173.369 266.609 174.22 265.995 175.024C265.382 175.828 259.862 181.881 258.918 184.387L258.871 179.658Z" fill="#FFB200"/>
<path d="M268.118 187.414L268.024 186.941C268.165 186.894 283.971 182.969 295.908 183.205C307.844 183.442 313.836 185.806 313.931 185.806L313.742 186.231C313.695 186.231 307.75 183.867 295.908 183.631C284.018 183.442 268.26 187.366 268.118 187.414Z" fill="#FF9D00"/>
<path d="M284.962 141.214C284.962 141.214 295.389 134.925 301.334 125.136C307.326 115.348 296.946 117.901 296.946 117.901C296.946 117.901 300.437 115.3 303.221 109.531C306.005 103.762 299.399 105.843 299.399 105.843C299.399 105.843 303.929 102.06 303.457 99.4591C302.985 96.8583 300.296 97.6622 300.296 97.6622C300.296 97.6622 302.844 92.3188 299.352 90.2854L284.962 141.214Z" fill="#FFC633"/>
<path d="M245.141 103.148C245.141 103.148 247.123 100.878 247.642 98.9864C248.161 97.0949 249.435 98.1352 249.435 99.3647C249.435 100.594 249.529 103.952 248.963 105.181C248.397 106.458 252.879 108.586 252.879 108.586L253.021 119.178C253.021 119.178 249.859 116.01 248.114 113.787C246.368 111.565 243.915 108.917 242.735 108.207C241.556 107.498 237.734 107.262 236.13 104.566C234.526 101.871 234.809 101.824 235.375 101.162C235.941 100.547 236.885 102.486 237.64 103.148C238.442 103.81 243.065 103.715 245.141 103.148Z" fill="#FFCC99"/>
<path d="M118.508 65.7434C118.508 65.7434 118.083 65.7907 117.093 65.6488C116.149 65.5543 115.347 65.1287 115.347 65.1287C115.347 65.1287 116.385 67.0674 118.838 67.7295L118.508 65.7434Z" fill="#FFA74F"/>
<path d="M69.6283 201.505C70.8078 200.323 73.9218 200.181 74.488 203.16C75.0541 205.998 74.1105 206.707 74.1105 206.707L67.5052 203.822C67.5995 203.87 68.8263 202.309 69.6283 201.505Z" fill="#786CFF"/>
<path d="M116.243 54.0633C116.243 54.0633 115.583 53.4013 114.781 54.0633C113.979 54.7253 114.262 55.9548 115.158 56.3804C116.055 56.8059 116.338 56.4749 116.432 56.1912C116.526 55.9548 115.536 55.7656 115.913 55.2455C116.29 54.7253 116.526 55.0563 116.668 54.8672C116.809 54.678 116.574 54.3943 116.243 54.0633Z" fill="#FFA74F"/>
<path d="M123.603 61.5821C123.368 61.5821 121.056 61.5349 120.301 59.2178L120.773 59.0759C121.433 61.1093 123.603 61.1093 123.603 61.1093V61.5821Z" fill="#FFA74F"/>
<path d="M90.7656 136.201L90.341 135.965C90.5297 135.681 90.9543 134.357 90.9071 133.364C90.9071 132.56 90.5297 132.418 90.5297 132.418L90.6712 131.946C90.7184 131.946 91.3318 132.135 91.379 133.317C91.4261 134.452 91.0015 135.823 90.7656 136.201Z" fill="#C97C00"/>
<path d="M89.4916 139.464L89.1141 139.18C89.1141 139.18 89.4444 138.755 89.6803 138.376L90.0577 138.613C89.8218 139.038 89.4916 139.464 89.4916 139.464Z" fill="#FFA74F"/>
<path d="M90.105 138.613L89.7275 138.377C89.8219 138.187 89.9634 137.62 90.0578 137.147C90.1993 136.58 90.2465 136.201 90.3881 136.012L90.8127 136.249C90.7183 136.391 90.624 136.863 90.5296 137.242C90.3409 137.904 90.2465 138.377 90.105 138.613Z" fill="#FFA74F"/>
<path d="M93.3131 136.059L92.8413 136.012C92.8413 135.965 92.8885 135.87 92.9357 135.728C93.0772 135.208 93.3603 134.168 93.3131 133.411C93.2188 132.513 92.511 132.087 92.511 132.087L92.747 131.709C92.7941 131.709 93.6906 132.276 93.7849 133.411C93.8793 134.262 93.549 135.35 93.4075 135.918C93.3603 135.965 93.3131 136.012 93.3131 136.059Z" fill="#C97C00"/>
<path d="M91.2374 139.417L91.0487 138.991C91.0487 138.991 91.5205 138.755 91.9923 138.14L92.3697 138.424C91.8508 139.18 91.2846 139.417 91.2374 139.417Z" fill="#FFA74F"/>
<path d="M92.3698 138.424L91.9923 138.14C92.4641 137.478 92.8416 135.965 92.8416 135.965L93.3134 136.059C93.2662 136.154 92.8888 137.667 92.3698 138.424Z" fill="#FFA74F"/>
<path d="M94.0209 137.951L93.5963 137.809C93.5963 137.762 94.4927 135.398 94.7286 133.695C94.9645 132.182 94.1153 131.993 94.1153 131.993L94.2096 131.52C94.2096 131.52 95.4835 131.804 95.2004 133.743C94.9173 135.492 94.0681 137.857 94.0209 137.951Z" fill="#FFA74F"/>
<path d="M86.3775 138.897L86.9437 136.012L87.7458 135.965C87.7458 135.965 87.6514 137.714 86.3775 138.897Z" fill="#FFA74F"/>
<path d="M233.11 64.5611C233.11 64.5611 232.544 64.4665 232.072 65.1758C231.6 65.8851 231.836 66.4526 231.836 66.4526C231.836 66.4526 232.119 65.9797 232.45 66.1688C232.78 66.358 232.591 66.6417 232.355 66.8782C232.119 67.1146 232.45 67.2565 232.733 66.9727C233.016 66.689 233.629 66.1688 233.629 65.696C233.629 65.2231 233.535 64.6084 233.11 64.5611Z" fill="#FFA74F"/>
<path d="M251.982 108.16C251.982 108.16 251.133 112.605 249.01 114.922C249.01 114.922 250.284 116.341 250.708 116.813C251.275 117.428 253.02 119.225 253.02 119.225L252.879 108.633L251.982 108.16Z" fill="#FFA74F"/>
<path d="M248.963 105.228C248.963 105.228 247.595 106.836 248.114 107.12C248.68 107.403 249.718 106.647 249.718 106.647C249.718 106.647 248.868 106.079 248.963 105.228Z" fill="#FFA74F"/>
<path d="M98.1258 93.6428C98.1258 93.6428 94.0211 108.633 94.9175 112.558C95.8139 116.483 97.9371 114.78 97.9371 114.78L98.1258 93.6428Z" fill="#172B4D"/>
<path d="M112.327 130.622C112.327 130.622 113.318 130.858 115.205 130.905C117.093 130.953 119.263 130.811 120.018 130.763C120.773 130.716 120.773 130.669 120.773 130.669C120.773 130.669 121.009 132.229 121.103 132.655C121.103 132.655 117.847 133.128 115.158 132.891C113.318 132.702 112.28 132.466 112.28 132.466V130.622H112.327Z" fill="#FF9D00"/>
<path d="M117.8 141.497C117.659 141.497 117.517 141.497 117.376 141.497C114.781 141.261 113.365 140.41 112.846 138.708C112.374 137.052 112.374 131.283 112.374 131.047V130.811L120.867 131.094L120.914 131.283C121.056 132.466 121.858 138.471 121.811 138.991C121.669 139.937 120.065 141.497 117.8 141.497ZM112.846 131.331C112.846 132.466 112.893 137.242 113.271 138.613C113.695 140.079 115.016 140.835 117.376 141.025C119.546 141.214 121.197 139.748 121.339 138.944C121.386 138.566 120.82 134.31 120.489 131.567L112.846 131.331Z" fill="#FF9D00"/>
<path d="M113.082 127.5C111.431 127.5 109.779 127.453 108.222 127.264C100.815 126.507 97.6539 123.67 97.5124 123.528L97.8427 123.197C97.8898 123.245 101.004 126.082 108.27 126.791C117.564 127.737 129.359 125.42 129.501 125.372L129.595 125.845C129.501 125.893 121.244 127.5 113.082 127.5Z" fill="#FF9D00"/>
<path d="M73.4028 198.006C73.4028 198.006 75.6675 198.337 78.9701 200.276C82.2728 202.214 83.358 204.106 83.358 204.106L84.5375 202.025C84.5375 202.025 83.0749 200.134 80.0081 198.337C77.6963 196.966 75.6675 196.635 74.771 196.54C74.488 196.493 74.2992 196.493 74.2992 196.493L73.4028 198.006Z" fill="#FFA74F"/>
<path d="M226.788 66.4527C227.074 66.4527 227.307 66.2198 227.307 65.9325C227.307 65.6452 227.074 65.4124 226.788 65.4124C226.501 65.4124 226.269 65.6452 226.269 65.9325C226.269 66.2198 226.501 66.4527 226.788 66.4527Z" fill="#C97C00"/>
<path d="M228.156 65.1759C227.967 64.9394 227.732 64.5611 226.694 64.4666C225.703 64.372 225.278 64.8449 225.278 64.8449L224.901 64.5138C224.901 64.4666 225.514 63.8518 226.741 63.9464C227.92 64.0883 228.298 64.5611 228.486 64.7976L228.156 65.1759Z" fill="#C97C00"/>
<path d="M221.268 66.358C221.554 66.358 221.787 66.1251 221.787 65.8378C221.787 65.5505 221.554 65.3176 221.268 65.3176C220.981 65.3176 220.749 65.5505 220.749 65.8378C220.749 66.1251 220.981 66.358 221.268 66.358Z" fill="#C97C00"/>
<path d="M223.485 65.4595C223.532 66.6889 222.117 69.1006 222.353 69.9991C222.589 70.8975 224.287 70.5192 224.806 70.5665C225.325 70.6138 225.75 70.4246 225.608 69.8572" fill="url(#paint4_linear_655_14794)"/>
<path d="M249.718 124.143C249.718 124.143 246.84 125.467 244.999 125.704C243.159 125.94 243.962 127.501 245.613 127.595C247.264 127.69 249.387 126.318 250.001 125.467C250.708 124.616 250.661 123.717 249.718 124.143Z" fill="#FF9D00"/>
<path d="M245.66 103.148C245.66 103.148 244.811 102.107 244.481 101.162C244.151 100.216 242.782 99.9794 242.499 100.972C242.216 101.965 242.971 104.141 243.584 104.472C244.198 104.803 246.132 104.566 245.66 103.148Z" fill="#FFCC99"/>
<path d="M243.301 103.148C243.301 103.148 242.452 102.107 242.122 101.162C241.791 100.216 240.423 99.9794 240.14 100.972C239.857 101.965 240.612 104.141 241.225 104.472C241.886 104.803 243.773 104.566 243.301 103.148Z" fill="#FFCC99"/>
<path d="M240.989 103.148C240.989 103.148 240.14 102.107 239.81 101.162C239.479 100.216 238.111 99.9794 237.828 100.972C237.545 101.965 238.3 104.141 238.913 104.472C239.527 104.803 241.461 104.566 240.989 103.148Z" fill="#FFCC99"/>
<path d="M238.63 103.148C238.63 103.148 237.781 102.107 237.451 101.162C237.12 100.216 235.752 99.9794 235.469 100.972C235.186 101.965 235.941 104.141 236.554 104.472C237.215 104.803 239.102 104.566 238.63 103.148Z" fill="#FFCC99"/>
<path d="M130.209 144.95C130.209 144.95 129.171 147.834 126.528 149.395C123.886 150.955 126.293 152.657 128.369 151.806C130.444 150.955 130.916 148.733 131.247 146.179C131.577 143.626 130.209 144.95 130.209 144.95Z" fill="#FF9D00"/>
<g style="mix-blend-mode:multiply">
<g opacity="0.7">
<path opacity="0.7" d="M160.735 215.455C160.735 215.455 176.068 207.936 177.72 210.679C179.371 213.422 169.086 220.467 169.086 220.467L154.46 220.326L160.735 215.455Z" fill="#C4E2E5"/>
</g>
</g>
<path d="M121.527 86.3606C121.433 86.3606 121.338 86.3133 121.291 86.2187C121.244 86.1241 120.206 83.7125 120.253 77.376C120.3 71.5124 122.046 69.9046 122.141 69.8573C122.235 69.7627 122.376 69.7627 122.471 69.8573C122.565 69.9519 122.565 70.0937 122.471 70.1883C122.424 70.2356 120.772 71.7961 120.772 77.376C120.725 83.6179 121.763 85.9823 121.763 86.0296C121.81 86.1714 121.763 86.266 121.622 86.3606C121.622 86.3606 121.574 86.3606 121.527 86.3606Z" fill="#4333E2"/>
<path d="M98.3616 86.4078C98.2673 86.4078 98.1729 86.3605 98.1257 86.3132C97.9842 86.1241 97.8898 84.7055 97.6539 78.3217C97.6067 77.1868 97.5596 76.0992 97.5124 75.1534C97.5124 75.0116 97.6068 74.917 97.7483 74.917C97.8898 74.917 97.9842 75.0116 97.9842 75.1534C98.0314 76.0992 98.0786 77.1868 98.1257 78.3217C98.2673 81.6318 98.4088 85.7458 98.5504 86.0768C98.6447 86.1714 98.5975 86.3132 98.5032 86.4078C98.456 86.3605 98.4088 86.4078 98.3616 86.4078Z" fill="#4333E2"/>
<path d="M144.268 100.074C144.268 100.074 146.297 105.276 147.713 105.276C149.128 105.276 148.703 99.1282 148.656 99.1282C148.609 99.1282 144.268 100.074 144.268 100.074Z" fill="#172B4D"/>
<path d="M237.168 142.491C237.168 142.491 235.233 137.856 235.092 135.066C235.092 135.066 233.629 140.173 234.101 144.098C234.573 148.023 236.743 146.226 236.743 146.226L237.168 142.491Z" fill="#172B4D"/>
<path d="M224.57 73.6876C224.429 73.6876 224.24 73.6876 224.099 73.6403C222.966 73.4985 222.542 72.5054 222.542 72.4581L222.966 72.269C222.966 72.3163 223.297 73.0729 224.146 73.1674C225.137 73.3093 225.703 73.0256 226.175 72.2217L226.694 71.3232L227.118 71.5597L226.599 72.4581C226.08 73.3093 225.42 73.6876 224.57 73.6876Z" fill="#FFA74F"/>
<path d="M228.062 203.397L227.59 203.302C229.147 195.074 234.761 141.687 234.809 141.167L235.28 141.214C235.233 141.781 229.619 195.169 228.062 203.397Z" fill="#172B4D"/>
<path d="M121.905 54.016C122.218 54.016 122.471 53.7619 122.471 53.4486C122.471 53.1352 122.218 52.8811 121.905 52.8811C121.592 52.8811 121.339 53.1352 121.339 53.4486C121.339 53.7619 121.592 54.016 121.905 54.016Z" fill="#C97C00"/>
<path d="M120.442 52.1246L120.018 51.8882C120.018 51.8409 120.537 51.037 121.669 50.8006C123.226 50.4696 123.65 51.2262 123.698 51.2262L123.273 51.4626C123.273 51.4626 122.943 50.9897 121.763 51.2262C120.82 51.4626 120.442 52.1246 120.442 52.1246Z" fill="#C97C00"/>
<path d="M137.522 217.536L151.487 217.725C151.487 217.725 153.233 217.63 154.177 216.732C155.12 215.833 168.614 205.477 168.614 205.477C168.614 205.477 170.077 206.943 169.322 208.031C167.906 210.064 157.621 218.434 154.46 220.326C154.46 220.326 142.806 220.751 138.89 220.467C138.088 220.42 137.805 220.278 137.522 217.536Z" fill="white"/>
<path d="M82.4616 199.803L82.037 199.566C82.2729 199.188 104.495 162.304 108.6 155.069C112.657 147.929 111.289 143.058 111.289 143.011L111.761 142.869C111.808 143.058 113.224 147.976 109.024 155.305C104.92 162.54 82.6975 199.425 82.4616 199.803Z" fill="#FF9D00"/>
<path d="M147.241 203.113C147.194 203.018 144.033 193.655 140.305 181.739C136.578 169.823 126.387 127.075 126.245 126.649L126.717 126.555C126.812 126.98 137.003 169.728 140.73 181.644C144.457 193.561 147.618 202.924 147.665 203.018L147.241 203.113Z" fill="#FF9D00"/>
<path d="M246.321 104.566C245.755 104.85 241.272 105.228 240.093 104.803C238.913 104.377 237.734 105.89 239.81 106.599C241.886 107.309 243.962 108.254 245 108.586C246.038 108.917 248.585 107.545 248.869 107.072C248.963 106.883 248.916 106.694 248.869 106.552C248.633 106.079 248.491 105.512 248.585 104.992C248.821 103.809 249.104 101.965 248.916 101.634C248.585 101.161 247.972 103.809 246.321 104.566Z" fill="#FFA74F"/>
<path d="M154.507 220.562H143.702V220.089H154.365C154.743 219.853 156.63 218.576 158.423 217.204C158.753 216.968 159.178 216.637 159.697 216.211C162.48 214.084 167.717 210.159 169.133 207.889L169.18 207.842C169.18 207.842 169.605 207.369 169.038 206.376C168.425 205.335 168.095 205.099 168.095 205.099L168.331 204.673C168.378 204.721 168.755 204.957 169.463 206.092C170.171 207.274 169.699 207.983 169.605 208.125C168.142 210.442 162.905 214.415 160.074 216.542C159.555 216.921 159.13 217.252 158.8 217.535C156.819 219.096 154.695 220.467 154.648 220.467L154.507 220.562Z" fill="#A8D4DA"/>
<path d="M99.1165 220.231H82.2729V220.704H99.1165V220.231Z" fill="#A8D4DA"/>
<path d="M150.685 205.714C150.685 205.714 152.525 208.22 152.761 208.882C153.186 210.064 153.799 210.064 154.601 210.206C155.403 210.301 158.659 208.835 159.319 208.504C159.98 208.173 159.697 206.47 158.8 206.092C158.8 206.092 156.3 206.423 154.177 206.139C152.006 205.855 150.685 205.714 150.685 205.714Z" fill="#978EFF"/>
<path d="M82.3203 210.679V213.091C82.3203 213.091 82.3674 214.131 84.0188 214.557C86.2834 215.077 90.5769 215.786 90.7656 215.55C91.2846 215.029 90.9072 213.847 90.9072 213.847L82.3203 210.679Z" fill="#978EFF"/>
<path d="M201.688 216.022H229.666V219.049H199.895C199.848 219.049 198.81 217.347 201.688 216.022Z" fill="white"/>
<path d="M218.956 208.362C218.956 208.362 221.409 207.936 222.541 209.544C223.674 211.152 219.144 213.043 216.832 213.374C214.521 213.705 212.209 211.625 212.209 211.625L218.956 208.362Z" fill="#978EFF"/>
<path d="M89.9161 217.677C89.9161 217.677 90.4822 216.259 92.2751 216.117C94.068 216.022 96.7573 216.117 96.7573 216.117C96.7573 216.117 98.0784 217.11 98.3614 217.677H89.9161Z" fill="#FCD885"/>
<path d="M163.471 204.91C163.471 204.91 164.132 204.768 164.273 205.477C164.415 206.187 160.499 208.504 160.074 209.686C159.649 210.868 160.074 212.05 160.074 212.05L168.567 205.477C168.567 205.477 168.425 205.099 167.576 204.484C166.727 203.87 163.471 204.91 163.471 204.91Z" fill="#FCD885"/>
<path d="M201.688 216.022L207.585 213.469C207.585 213.469 208.246 214.367 211.124 214.462C214.002 214.556 214.993 214.273 215.559 214.651C216.125 215.029 216.644 216.022 216.644 216.022H201.688Z" fill="#FCD885"/>
<path d="M243.773 216.826C243.915 216.684 252.596 216.779 252.596 216.779C252.596 216.779 251.322 219.096 248.774 219.096C246.226 219.096 242.829 219.096 242.829 219.096C242.829 219.096 243.443 217.157 243.773 216.826Z" fill="white"/>
<path d="M250.426 209.544C250.426 209.544 249.907 210.632 249.576 211.01C249.246 211.388 248.302 211.766 248.255 212.334C248.208 212.949 251.699 213.658 253.068 213.185V209.26C253.068 209.26 252.124 208.882 250.426 209.544Z" fill="#978EFF"/>
<path d="M215.842 212.854C215.842 212.854 215.464 212.381 214.851 211.719C214.332 211.152 213.766 210.915 213.766 210.915L213.955 210.49C214.002 210.49 214.662 210.773 215.228 211.388C215.889 212.098 216.266 212.57 216.266 212.57L215.842 212.854Z" fill="#5041FF"/>
<path d="M217.163 212.239C217.163 212.239 216.785 211.767 216.172 211.104C215.653 210.537 215.087 210.301 215.087 210.301L215.276 209.875C215.323 209.875 215.983 210.159 216.55 210.773C217.21 211.483 217.54 211.956 217.588 211.956L217.163 212.239Z" fill="#5041FF"/>
<path d="M218.531 211.578C218.531 211.578 218.154 211.105 217.54 210.443C217.021 209.875 216.455 209.639 216.455 209.639L216.644 209.213C216.691 209.213 217.352 209.497 217.918 210.112C218.578 210.821 218.956 211.294 218.956 211.294L218.531 211.578Z" fill="#5041FF"/>
<path d="M219.9 210.915C219.9 210.915 219.522 210.443 218.909 209.78C218.39 209.213 217.824 208.977 217.824 208.977L218.012 208.551C218.059 208.551 218.72 208.835 219.286 209.449C219.947 210.159 220.324 210.632 220.324 210.632L219.9 210.915Z" fill="#5041FF"/>
<path d="M221.598 215.313C221.551 215.313 221.551 215.313 221.504 215.313C221.362 215.266 221.315 215.124 221.362 215.029C221.362 215.029 221.645 214.273 221.362 212.712C221.315 212.334 221.173 212.003 221.032 211.672C220.89 211.719 220.749 211.766 220.56 211.766C219.805 211.861 219.145 211.53 218.673 210.868C217.588 209.355 218.578 208.362 218.72 208.267C218.72 208.267 218.72 208.267 218.767 208.22C218.814 208.22 218.861 208.173 218.861 208.173C218.909 208.173 218.909 208.173 218.956 208.173C218.956 208.173 218.956 208.173 219.003 208.173C220.513 208.74 221.645 209.497 221.975 210.159C222.117 210.442 222.07 210.632 222.023 210.773C221.928 211.01 221.739 211.246 221.456 211.388C221.645 211.766 221.739 212.192 221.834 212.57C222.117 214.273 221.787 215.077 221.787 215.124C221.787 215.218 221.692 215.313 221.598 215.313ZM219.003 208.693C218.814 208.976 218.484 209.591 219.145 210.537C219.616 211.199 220.182 211.294 220.56 211.246C220.654 211.246 220.749 211.199 220.843 211.199C220.277 210.017 219.38 209.071 219.003 208.693ZM219.994 209.071C220.418 209.544 220.937 210.206 221.315 210.963C221.504 210.821 221.598 210.726 221.645 210.584C221.692 210.537 221.645 210.442 221.598 210.348C221.456 210.017 220.89 209.544 219.994 209.071Z" fill="#5041FF"/>
<path d="M245.707 213.895C245.707 213.895 244.292 215.597 243.773 216.826H252.596C252.596 216.826 253.068 215.833 253.068 214.793H247.689C247.689 214.746 245.991 214.698 245.707 213.895Z" fill="#FCD885"/>
<path d="M249.246 212.192L249.105 211.719C249.152 211.719 250.237 211.388 251.794 211.341C252.502 211.341 253.115 211.341 253.115 211.341V211.814C253.115 211.814 252.502 211.814 251.841 211.814C250.284 211.909 249.246 212.192 249.246 212.192Z" fill="#5041FF"/>
<path d="M250.426 211.341L250.284 210.868C250.331 210.868 250.897 210.679 251.935 210.679H253.115V211.152H251.935C250.945 211.152 250.426 211.341 250.426 211.341Z" fill="#5041FF"/>
<path d="M250.992 210.584L250.944 210.111C250.992 210.111 251.747 210.017 253.068 210.017V210.49C251.747 210.49 250.992 210.584 250.992 210.584Z" fill="#5041FF"/>
<path d="M251.511 209.875L251.416 209.402C251.463 209.402 252.124 209.308 253.068 209.308V209.78C252.218 209.78 251.511 209.875 251.511 209.875Z" fill="#5041FF"/>
<path d="M249.104 211.246C249.057 211.246 249.057 211.246 249.01 211.246C248.349 211.199 247.972 210.868 247.972 210.395C247.925 209.639 248.821 208.693 250.19 208.504C252.124 208.22 252.643 208.598 252.737 208.74L252.879 208.882L252.737 209.024C252.596 209.118 250.709 211.246 249.104 211.246ZM251.322 208.882C251.039 208.882 250.661 208.882 250.19 208.977C249.057 209.118 248.349 209.875 248.397 210.348C248.397 210.679 248.727 210.726 249.01 210.773C250.142 210.821 251.558 209.497 252.124 208.977C251.935 208.929 251.699 208.882 251.322 208.882Z" fill="#5041FF"/>
<path d="M153.941 209.591L153.516 208.267C153.139 206.99 152.101 206.139 152.101 206.092L152.384 205.714C152.431 205.761 153.563 206.707 153.988 208.078L154.412 209.402L153.941 209.591Z" fill="#5041FF"/>
<path d="M155.403 208.598L154.932 208.551C154.932 208.551 154.932 208.267 154.601 207.511C154.271 206.707 153.705 206.329 153.658 206.329L153.894 205.95C153.941 205.95 154.601 206.423 154.979 207.369C155.45 208.22 155.403 208.551 155.403 208.598Z" fill="#5041FF"/>
<path d="M156.441 208.977L156.017 207.747C155.639 206.66 155.215 206.376 155.215 206.376L155.451 205.95C155.498 205.997 156.017 206.281 156.441 207.558L156.866 208.787L156.441 208.977Z" fill="#5041FF"/>
<path d="M157.385 208.314C157.385 208.314 157.338 208.125 157.102 207.416C156.866 206.707 156.488 206.423 156.488 206.423L156.772 206.045C156.772 206.045 157.243 206.423 157.526 207.274C157.81 208.031 157.81 208.267 157.81 208.267L157.385 208.314Z" fill="#5041FF"/>
<path d="M152.667 212.618C151.77 212.618 150.921 212.239 150.308 211.53C149.411 210.49 149.128 208.835 149.6 207.511C149.883 206.612 150.402 206.045 151.015 205.761C151.912 205.335 152.855 205.714 152.855 205.714C154.743 206.565 155.545 208.693 155.309 210.253C155.12 211.53 154.318 212.429 153.139 212.618C153.044 212.618 152.855 212.618 152.667 212.618ZM152.053 205.998C151.817 205.998 151.534 206.045 151.298 206.139C150.779 206.376 150.402 206.896 150.119 207.605C149.694 208.787 149.977 210.253 150.732 211.152C151.157 211.672 151.959 212.239 153.186 212.05C154.176 211.908 154.837 211.199 154.979 210.112C155.167 208.74 154.46 206.849 152.808 206.092C152.714 206.092 152.431 205.998 152.053 205.998Z" fill="#5041FF"/>
<path d="M157.055 212.003C155.781 212.003 153.988 211.53 152.856 210.206C151.582 208.74 151.299 205.95 151.299 205.808L151.77 205.761C151.77 205.808 152.053 208.504 153.233 209.875C154.365 211.199 156.111 211.577 157.338 211.483L157.385 211.956C157.243 212.003 157.149 212.003 157.055 212.003Z" fill="#5041FF"/>
<path d="M84.0186 213.374L83.5468 213.327C83.6411 212.05 83.2165 210.773 83.2165 210.773L83.6883 210.632C83.6883 210.679 84.1129 211.956 84.0186 213.374Z" fill="#5041FF"/>
<path d="M85.2924 213.847L84.8206 213.8C84.9149 212.523 84.4903 211.246 84.4903 211.246L84.9621 211.104C84.9621 211.152 85.3867 212.429 85.2924 213.847Z" fill="#5041FF"/>
<path d="M86.5662 214.273L86.0944 214.225C86.1887 212.949 85.7641 211.672 85.7641 211.672L86.2359 211.53C86.2831 211.577 86.6605 212.901 86.5662 214.273Z" fill="#5041FF"/>
<path d="M87.8873 214.746L87.4155 214.698C87.5099 213.422 87.0852 212.145 87.0852 212.145L87.557 212.003C87.557 212.05 87.9345 213.374 87.8873 214.746Z" fill="#5041FF"/>
<path d="M89.1611 214.935L88.6893 214.888C88.7837 213.611 88.359 212.334 88.359 212.334L88.8308 212.192C88.8308 212.239 89.2555 213.563 89.1611 214.935Z" fill="#5041FF"/>
<path d="M83.028 220.278C82.8392 220.184 82.3674 219.569 81.9428 216.164C81.8956 215.928 81.8956 215.691 81.8956 215.455C81.1407 215.077 80.7161 214.415 80.6689 213.516C80.6217 212.05 81.8013 211.246 82.9336 210.868C83.1223 210.584 83.2639 210.395 83.2639 210.395L83.4526 210.159L83.6413 210.395C83.6413 210.442 83.7357 210.537 83.7828 210.632C83.8772 210.632 83.9716 210.584 84.0659 210.584L84.1131 211.057H84.0659C84.4906 211.766 85.0567 212.807 85.0567 213.327C85.1039 214.084 85.0567 214.556 84.5849 215.124C84.1131 215.597 83.1695 215.786 82.3674 215.597C82.3674 215.739 82.4146 215.88 82.4146 216.07C82.8392 219.332 83.2639 219.805 83.311 219.853L83.028 220.278ZM82.3202 215.171C83.0751 215.408 83.8772 215.218 84.2075 214.887C84.5377 214.509 84.6321 214.225 84.5849 213.469C84.5377 213.043 83.9716 211.956 83.5469 211.246C83.4526 211.246 83.3582 211.294 83.2167 211.341C82.8392 212.003 82.2731 213.28 82.3202 215.171ZM82.5561 211.53C81.8013 211.861 81.0935 212.428 81.0935 213.516C81.1407 214.273 81.471 214.698 81.8013 214.935C81.8484 213.422 82.2259 212.287 82.5561 211.53Z" fill="#5041FF"/>
</g>
<defs>
<linearGradient id="paint0_linear_655_14794" x1="157.599" y1="108.508" x2="182.113" y2="108.508" gradientUnits="userSpaceOnUse">
<stop stop-color="#2494A1"/>
<stop offset="0.998" stop-color="white" stop-opacity="0"/>
</linearGradient>
<linearGradient id="paint1_linear_655_14794" x1="227.489" y1="217.408" x2="235.388" y2="152.786" gradientUnits="userSpaceOnUse">
<stop stop-color="#2494A1"/>
<stop offset="0.998" stop-color="white" stop-opacity="0"/>
</linearGradient>
<linearGradient id="paint2_linear_655_14794" x1="223.893" y1="104.497" x2="207.485" y2="130.313" gradientUnits="userSpaceOnUse">
<stop stop-color="#2494A1"/>
<stop offset="0.998" stop-color="white" stop-opacity="0"/>
</linearGradient>
<linearGradient id="paint3_linear_655_14794" x1="220.837" y1="65.045" x2="222.435" y2="67.7905" gradientUnits="userSpaceOnUse">
<stop stop-color="#FFCC99" stop-opacity="0.3"/>
<stop offset="1" stop-color="#FFB759"/>
</linearGradient>
<linearGradient id="paint4_linear_655_14794" x1="227" y1="65.5071" x2="222.543" y2="69.8749" gradientUnits="userSpaceOnUse">
<stop offset="0.00200123" stop-color="#FFCC99" stop-opacity="0"/>
<stop offset="0.2661" stop-color="#FFD19F" stop-opacity="0.2646"/>
<stop offset="0.6161" stop-color="#FFE0B0" stop-opacity="0.6153"/>
<stop offset="1" stop-color="#FFF7CA"/>
</linearGradient>
<clipPath id="clip0_655_14794">
<rect width="282" height="224" fill="white" transform="translate(45 2)"/>
</clipPath>
</defs>
</svg>
